<?xml version="1.0" encoding="utf-8"?>
<!-- Generator: Adobe Illustrator 19.0.0, SVG Export Plug-In . SVG Version: 6.00 Build 0)  -->
<svg version="1.1" id="Layer_1" xmlns="http://www.w3.org/2000/svg" xmlns:xlink="http://www.w3.org/1999/xlink" x="0px" y="0px"
	 viewBox="0 0 13.3 21.8" style="enable-background:new 0 0 13.3 21.8;" xml:space="preserve" width="18">
<style type="text/css">
	.st0{display:none;}
	.st1{fill:#E28500;}
</style>
<g class="st0">
	
		<image style="display:inline;overflow:visible;" width="16" height="26" xlink:href="4D039F39.jpg"  transform="matrix(1 0 0 1 -1.3333 -1)">
	</image>
</g>
<circle class="st1" cx="6.8" cy="2.7" r="2.5"/>
<path class="st1" d="M11.4,13.8c0,0.4,0.4,0.8,0.8,0.8h0c0.4,0,0.8-0.4,0.8-0.8v-3.3c0-1.3-0.6-2.6-1.6-3.4c-1-0.7-2.5-1.4-4.7-1.4
	c-2.2,0-3.8,0.7-4.7,1.4c-1,0.8-1.6,2-1.6,3.3v3.4c0,0.4,0.4,0.8,0.8,0.8h0c0.4,0,0.8-0.4,0.8-0.8c-0.3-4.3,1.6-3.7,1.6-3.7
	s-1,2.8,0.1,4.2c0.1,0.2,0.2,0.3,0.2,0.5l0,6.1c0,0.4,0.4,0.8,0.8,0.8h0.2c0.4,0,0.8-0.4,0.8-0.8v-5.4h1c0,0,1,0,1,0V21
	c0,0.4,0.4,0.8,0.8,0.8h0.2c0.4,0,0.8-0.4,0.8-0.8l0-6.1c0-0.2,0.1-0.4,0.2-0.5c1.1-1.5,0.1-4.2,0.1-4.2S11.6,9.2,11.4,13.8z"/>
</svg>
