<?xml version="1.0" encoding="utf-8"?>
<!-- Generator: Adobe Illustrator 19.0.0, SVG Export Plug-In . SVG Version: 6.00 Build 0)  -->
<svg version="1.1" xmlns="http://www.w3.org/2000/svg" xmlns:xlink="http://www.w3.org/1999/xlink" x="0px" y="0px"
	 viewBox="0 0 16 16" style="enable-background:new 0 0 16 16;" xml:space="preserve">
<style type="text/css">
	.st0{fill:#808080;}
</style>
<g id="Layer_1">
</g>
<g id="Layer_2">
	<g>
		<path class="st0" d="M13.8,1.8V0.6c0-0.3-0.3-0.6-0.7-0.6H13c-0.4,0-0.7,0.3-0.7,0.6v1.2h-2V0.6C10.3,0.3,10,0,9.6,0H9.5
			C9.1,0,8.8,0.3,8.8,0.6v1.2H7.1V0.6C7.1,0.3,6.8,0,6.5,0H6.3C5.9,0,5.6,0.3,5.6,0.6v1.2h-2V0.6C3.6,0.3,3.3,0,2.9,0H2.8
			C2.4,0,2.1,0.3,2.1,0.6v1.2C1.3,1.9,0.7,2.6,0.7,3.5v10.9c0,0.9,0.7,1.6,1.6,1.6h11.5c0.9,0,1.6-0.7,1.6-1.6V3.5
			C15.3,2.6,14.6,1.9,13.8,1.8z M12.3,3v0.9c0,0.3,0.3,0.6,0.7,0.6h0.2c0.4,0,0.7-0.3,0.7-0.6V3.1c0.3,0.2,0.4,0.5,0.4,0.9
			c0,0.7-0.5,1.2-1.2,1.2S11.9,4.6,11.9,4C11.9,3.6,12,3.3,12.3,3z M8.8,3.1v0.9c0,0.3,0.3,0.6,0.7,0.6h0.2c0.4,0,0.7-0.3,0.7-0.6V3
			c0.3,0.2,0.5,0.6,0.5,0.9c0,0.7-0.5,1.2-1.2,1.2C8.9,5.2,8.4,4.6,8.4,4C8.4,3.6,8.5,3.3,8.8,3.1z M5.6,3v0.9
			c0,0.3,0.3,0.6,0.7,0.6h0.2c0.4,0,0.7-0.3,0.7-0.6V3.1C7.4,3.3,7.6,3.6,7.6,4c0,0.7-0.5,1.2-1.2,1.2C5.7,5.2,5.2,4.6,5.2,4
			C5.2,3.6,5.4,3.3,5.6,3z M2.1,3.1v0.9c0,0.3,0.3,0.6,0.7,0.6h0.2c0.4,0,0.7-0.3,0.7-0.6V3C3.9,3.3,4.1,3.6,4.1,4
			c0,0.7-0.5,1.2-1.2,1.2C2.2,5.2,1.7,4.6,1.7,4C1.7,3.6,1.9,3.3,2.1,3.1z M14.4,14.4c0,0.4-0.3,0.7-0.7,0.7H2.3
			c-0.4,0-0.7-0.3-0.7-0.7V7c0-0.4,0.3-0.7,0.7-0.7h11.5c0.4,0,0.7,0.3,0.7,0.7V14.4z"/>
		<rect x="2.9" y="6.9" class="st0" width="2" height="1.5"/>
		<rect x="5.7" y="6.9" class="st0" width="2" height="1.5"/>
		<rect x="8.5" y="6.9" class="st0" width="2" height="1.5"/>
		<rect x="11.4" y="6.9" class="st0" width="2" height="1.5"/>
		<rect x="2.8" y="8.9" class="st0" width="2" height="1.5"/>
		<rect x="5.7" y="8.9" class="st0" width="2" height="1.5"/>
		<rect x="8.5" y="8.9" class="st0" width="2" height="1.5"/>
		<rect x="11.3" y="8.9" class="st0" width="2" height="1.5"/>
		<rect x="2.8" y="10.9" class="st0" width="2" height="1.5"/>
		<rect x="5.7" y="10.9" class="st0" width="2" height="1.5"/>
		<rect x="8.5" y="10.9" class="st0" width="2" height="1.5"/>
		<rect x="11.3" y="10.9" class="st0" width="2" height="1.5"/>
		<rect x="2.8" y="12.9" class="st0" width="2" height="1.5"/>
		<rect x="5.6" y="12.9" class="st0" width="2" height="1.5"/>
		<rect x="8.4" y="12.9" class="st0" width="2" height="1.5"/>
		<rect x="11.3" y="12.9" class="st0" width="2" height="1.5"/>
	</g>
</g>
</svg>
