<?xml version="1.0" encoding="utf-8"?>
<!-- Generator: Adobe Illustrator 19.0.0, SVG Export Plug-In . SVG Version: 6.00 Build 0)  -->
<svg version="1.1" id="Layer_1" xmlns="http://www.w3.org/2000/svg" xmlns:xlink="http://www.w3.org/1999/xlink" x="0px" y="0px"
	 viewBox="0 0 16 16" style="enable-background:new 0 0 16 16;" xml:space="preserve">
<style type="text/css">
	.st0{fill:#C41011;}
</style>
<g id="XMLID_2_">
	<g id="XMLID_5_">
		<path id="XMLID_12_" class="st0" d="M10.3,15.2c0,0.4,0.3,0.7,0.7,0.7c0.4,0,0.7-0.3,0.7-0.7V12c-0.4,0-0.9-0.1-1.4-0.2V15.2z"/>
		<path id="XMLID_11_" class="st0" d="M12.1,15.2c0,0.4,0.3,0.7,0.7,0.7c0.4,0,0.7-0.3,0.7-0.7v-3.4c-0.4,0.1-1,0.2-1.4,0.2V15.2z"
			/>
		<circle id="XMLID_10_" class="st0" cx="11.9" cy="2.6" r="1.7"/>
		<path id="XMLID_9_" class="st0" d="M14.3,5.6c-0.3-0.4-0.7-0.6-0.9-0.7c-0.2-0.1-0.6-0.3-1.5-0.3c-0.9,0-1.3,0.2-1.5,0.3
			C10.2,5,9.8,5.2,9.5,5.6C8.9,6.3,8.4,7.5,8.1,9.5c0,0.3,0.2,0.6,0.5,0.6c0,0,0,0,0.1,0c0.3,0,0.5-0.2,0.5-0.5
			c0.1-1.3,0.4-2.2,0.7-2.7c-0.2,1.3-0.5,3-0.5,4.1c0,0,0,0,0,0c0.1,0.4,1.6,0.7,2.5,0.7c0.8,0,2.4-0.3,2.5-0.7c0,0,0,0,0,0
			c0-1.2-0.2-2.8-0.5-4.1c0.3,0.6,0.6,1.4,0.7,2.7c0,0.3,0.3,0.5,0.5,0.5c0,0,0,0,0.1,0c0.3,0,0.5-0.3,0.5-0.6
			C15.4,7.5,14.8,6.3,14.3,5.6z"/>
		<circle id="XMLID_8_" class="st0" cx="3.8" cy="2" r="1.8"/>
		<path id="XMLID_7_" class="st0" d="M2,9.5v0.7V15c0,0.5,0.4,0.8,0.8,0.8c0.5,0,0.8-0.4,0.8-0.8v-3.6H4V15c0,0.5,0.4,0.8,0.8,0.8
			c0.5,0,0.8-0.4,0.8-0.8v-4.9V9.5H2z"/>
		<path id="XMLID_6_" class="st0" d="M6.7,10.8C6.7,10.8,6.7,10.8,6.7,10.8c0.3,0,0.6-0.3,0.6-0.6c0-0.2,0-0.3,0-0.5
			c0-2.2-0.4-3.5-0.8-4.3c-0.4-0.8-1-1-1.1-1.1c0,0-0.1,0-0.1,0c-0.1,0-0.1,0-0.2,0H2.5c-0.1,0-0.1,0-0.2,0c0,0-0.1,0-0.1,0l0,0
			c-0.1,0-0.6,0.3-1.1,1.1C0.7,6.2,0.4,7.5,0.4,9.7c0,0.1,0,0.3,0,0.5c0,0.3,0.3,0.6,0.6,0.6c0,0,0,0,0,0c0.3,0,0.6-0.3,0.6-0.6
			c0-0.1,0-0.3,0-0.4c0-1.6,0.2-2.6,0.5-3.2v1.8v1h3.7v-1V6.5c0.2,0.6,0.5,1.7,0.5,3.2c0,0.1,0,0.3,0,0.4
			C6.1,10.5,6.4,10.8,6.7,10.8z"/>
	</g>
	<path id="XMLID_4_" class="st0" d="M13.4,1.8c0,0,1.1-0.1,0.9,1.1c0,0-0.7-0.5-1.1-0.9S13.4,1.8,13.4,1.8z"/>
	<path id="XMLID_3_" class="st0" d="M10.3,1.8c0,0-1.1,0-0.9,1.1c0,0,0.7-0.5,1-0.9S10.3,1.8,10.3,1.8z"/>
</g>
</svg>
