<?xml version="1.0" encoding="utf-8"?>
<!-- Generator: Adobe Illustrator 19.0.0, SVG Export Plug-In . SVG Version: 6.00 Build 0)  -->
<svg version="1.1" id="Capa_1" xmlns="http://www.w3.org/2000/svg" xmlns:xlink="http://www.w3.org/1999/xlink" x="0px" y="0px"
	 viewBox="0 0 200 200" style="enable-background:new 0 0 200 200;" xml:space="preserve">
<style type="text/css">
	.st0{display:none;fill:url(#SVGID_1_);}
	.st1{display:none;opacity:0.2;}
	.st2{display:inline;}
	.st3{fill:#FFFFFF;}
	.st4{fill:#0A75C4;}
	.st5{fill:#403F41;}
	.st6{fill:#F7A96D;}
	.st7{fill:#035693;}
	.st8{fill:#E6E6E7;}
	.st9{fill:#D0D2D3;}
	.st10{fill:#F0F1F1;}
	.st11{fill:#BBBDBF;}
	.st12{fill:#57585A;}
	.st13{fill:#929597;}
	.st14{fill:#C68B60;}
	.st15{fill:#601402;}
	.st16{fill:#FFBA7F;}
	.st17{fill:none;stroke:#221F1F;stroke-width:1.8043;stroke-miterlimit:10;}
	.st18{fill:none;stroke:#221F1F;stroke-width:3.8998;stroke-linecap:round;stroke-miterlimit:10;}
	.st19{fill:none;stroke:#221F1F;stroke-width:3.5263;stroke-miterlimit:10;}
	.st20{fill:none;stroke:#221F1F;stroke-width:3.9147;stroke-linecap:round;stroke-miterlimit:10;}
	.st21{fill:none;stroke:#221F1F;stroke-width:2.6112;stroke-linecap:square;stroke-miterlimit:10;}
</style>
<radialGradient id="SVGID_1_" cx="207.0831" cy="84.1452" r="252.9444" gradientUnits="userSpaceOnUse">
	<stop  offset="0" style="stop-color:#16AEB1"/>
	<stop  offset="0.4187" style="stop-color:#15ACAF"/>
	<stop  offset="0.6591" style="stop-color:#10A5A6"/>
	<stop  offset="0.8537" style="stop-color:#099A98"/>
	<stop  offset="1" style="stop-color:#008C88"/>
</radialGradient>
<rect x="-92.1" y="-114.3" class="st0" width="595.3" height="396.9"/>
<g class="st1">
	<g class="st2">
		<rect x="-71" y="-114.3" class="st3" width="2" height="396.9"/>
	</g>
	<g class="st2">
		<rect x="-43.4" y="-114.3" class="st3" width="2" height="396.9"/>
	</g>
	<g class="st2">
		<rect x="-15.8" y="-114.3" class="st3" width="2" height="396.9"/>
	</g>
	<g class="st2">
		<rect x="11.9" y="-114.3" class="st3" width="2" height="396.9"/>
	</g>
	<g class="st2">
		<rect x="67.1" y="-114.3" class="st3" width="2" height="396.9"/>
	</g>
	<g class="st2">
		<rect x="94.7" y="-114.3" class="st3" width="2" height="396.9"/>
	</g>
	<g class="st2">
		<rect x="39.5" y="-114.3" class="st3" width="2" height="396.9"/>
	</g>
	<g class="st2">
		<rect x="122.3" y="-114.3" class="st3" width="2" height="396.9"/>
	</g>
	<g class="st2">
		<rect x="150" y="-114.3" class="st3" width="2" height="396.9"/>
	</g>
	<g class="st2">
		<rect x="177.6" y="-114.3" class="st3" width="2" height="396.9"/>
	</g>
	<g class="st2">
		<rect x="205.2" y="-114.3" class="st3" width="2" height="396.9"/>
	</g>
	<g class="st2">
		<rect x="232.8" y="-114.3" class="st3" width="2" height="396.9"/>
	</g>
	<g class="st2">
		<rect x="260.5" y="-114.3" class="st3" width="2" height="396.9"/>
	</g>
	<g class="st2">
		<rect x="288.1" y="-114.3" class="st3" width="2" height="396.9"/>
	</g>
	<g class="st2">
		<rect x="315.7" y="-114.3" class="st3" width="2" height="396.9"/>
	</g>
	<g class="st2">
		<rect x="343.3" y="-114.3" class="st3" width="2" height="396.9"/>
	</g>
	<g class="st2">
		<rect x="370.9" y="-114.3" class="st3" width="2" height="396.9"/>
	</g>
	<g class="st2">
		<rect x="426.2" y="-114.3" class="st3" width="2" height="396.9"/>
	</g>
	<g class="st2">
		<rect x="453.8" y="-114.3" class="st3" width="2" height="396.9"/>
	</g>
	<g class="st2">
		<rect x="481.4" y="-114.3" class="st3" width="2" height="396.9"/>
	</g>
	<g class="st2">
		<rect x="398.6" y="-114.3" class="st3" width="2" height="396.9"/>
	</g>
	<g class="st2">
		<g>
			<rect x="-92.1" y="250.3" class="st3" width="595.3" height="2.1"/>
		</g>
		<g>
			<rect x="-92.1" y="222.7" class="st3" width="595.3" height="2.1"/>
		</g>
		<g>
			<rect x="-92.1" y="277.9" class="st3" width="595.3" height="2.1"/>
		</g>
		<g>
			<rect x="-92.1" y="195.1" class="st3" width="595.3" height="2.1"/>
		</g>
		<g>
			<rect x="-92.1" y="167.5" class="st3" width="595.3" height="2.1"/>
		</g>
		<g>
			<rect x="-92.1" y="139.8" class="st3" width="595.3" height="2.1"/>
		</g>
		<g>
			<rect x="-92.1" y="112.2" class="st3" width="595.3" height="2.1"/>
		</g>
		<g>
			<rect x="-92.1" y="84.6" class="st3" width="595.3" height="2.1"/>
		</g>
		<g>
			<rect x="-92.1" y="57" class="st3" width="595.3" height="2.1"/>
		</g>
		<g>
			<rect x="-92.1" y="29.3" class="st3" width="595.3" height="2.1"/>
		</g>
		<g>
			<rect x="-92.1" y="1.7" class="st3" width="595.3" height="2.1"/>
		</g>
		<g>
			<rect x="-92.1" y="-25.9" class="st3" width="595.3" height="2.1"/>
		</g>
		<g>
			<rect x="-92.1" y="-53.5" class="st3" width="595.3" height="2.1"/>
		</g>
		<g>
			<rect x="-92.1" y="-108.8" class="st3" width="595.3" height="2.1"/>
		</g>
		<g>
			<rect x="-92.1" y="-81.1" class="st3" width="595.3" height="2.1"/>
		</g>
	</g>
</g>
<polygon class="st4" points="85.9,115.7 52.7,128.3 72.9,254 130.9,254.1 149.8,128.3 118.4,117 "/>
<g>
	<path class="st3" d="M171.5,128.3c-10.2-3.2-45.6-12-45.6-12l12,89.6c0,0,10.9-6.5,24.1-5.4c13.4,1.1,1.1,17.6,0.3,18.7l30.4,1.2
		l4.5-13.6C195.9,170.7,184.9,132.5,171.5,128.3z"/>
	<path class="st3" d="M162.3,219.2l-1.3-0.1C161.1,219.1,161.8,220.1,162.3,219.2z"/>
</g>
<g>
	<path class="st3" d="M27.7,128.3c10.2-3.2,45.6-12,45.6-12l-12,89.6c0,0-10.9-6.5-24.1-5.4c-13.4,1.1-1.1,17.6-0.3,18.7l-30.4,1.2
		L2,206.8C3.3,170.7,14.3,132.5,27.7,128.3z"/>
	<path class="st3" d="M36.9,219.2l1.3-0.1C38.2,219.1,37.5,220.1,36.9,219.2z"/>
</g>
<polygon class="st5" points="54.3,271.8 54.4,273.5 150.7,273.5 150.8,271.9 "/>
<g>
	<polygon class="st6" points="99,141.2 105.2,141.5 121.9,111.6 82.4,113.8 	"/>
	<polygon class="st7" points="76.7,117.3 93.8,145.6 102.5,141.1 78.8,104 	"/>
	<polygon class="st7" points="101.7,141.1 110.5,145.6 126.5,118.4 125.4,104 	"/>
</g>
<path class="st3" d="M78.8,116.2l-24.1,9.4l-7.4,30.6c0,0,19.7,43.2,10.8,63.8c-7.6,17.5-10.6,39.3-11.5,58.4h57l1.4-65.5
	L78.8,116.2z"/>
<polygon class="st8" points="71.7,116.2 65.4,142.1 75.6,152.1 74.6,159.9 105,212.9 77.5,110.7 "/>
<rect x="59.9" y="246" transform="matrix(-1 -3.191609e-004 3.191609e-004 -1 140.6407 494.8606)" class="st9" width="20.8" height="2.7"/>
<path class="st3" d="M160.1,155.5L150,124.9l-24.1-9.4l-26.2,96.7l0,66.2h57.4c-1.3-18.8-4.7-40.5-12.2-58.7
	C132.5,190.1,160.1,155.5,160.1,155.5z"/>
<path class="st9" d="M105.2,220.3c-1.1,0-2.1,0.9-2.1,2.1c0,1.1,0.9,2.1,2.1,2.1c1.1,0,2.1-0.9,2.1-2.1
	C107.2,221.2,106.3,220.3,105.2,220.3z"/>
<path class="st9" d="M105.2,241.9c-1.1,0-2.1,0.9-2.1,2.1c0,1.1,0.9,2.1,2.1,2.1c1.1,0,2.1-0.9,2.1-2.1
	C107.2,242.8,106.3,241.9,105.2,241.9z"/>
<path class="st9" d="M105.3,264.9c-1.1,0-2.1,0.9-2.1,2.1c0,1.1,0.9,2.1,2.1,2.1c1.1,0,2.1-0.9,2.1-2.1
	C107.4,265.8,106.4,264.9,105.3,264.9z"/>
<polygon class="st9" points="122.8,248.8 143.6,248.8 143.6,246.1 122.8,246.1 "/>
<polygon class="st10" points="132.3,116.3 126.5,110.7 99,212.9 132.6,159.9 128.4,152.1 138.6,142.1 "/>
<polygon class="st9" points="78.6,209.6 76.6,216.9 148.8,230.9 146.7,222.5 "/>
<polygon class="st9" points="55.8,224.3 53.9,231.2 127.8,217 126.6,209.6 "/>
<g>
	<g>
		<g>
			<path class="st11" d="M57.9,196.1c-2.7,0-6-0.5-7-1.8c-0.7-0.7-1.2-3-1.1-6.2c0-6.4,1.6-15.8,2.6-23.3l-2.2-0.3
				c-0.9,7.4-2.6,16.9-2.6,23.5c0,3.4,0.3,6,1.7,7.7c2.1,2.2,5.7,2.4,8.6,2.5c2.4,0,4.2-0.2,4.3-0.2l-0.3-2.2
				C61.9,195.9,60.1,196.1,57.9,196.1z"/>
		</g>
		<g>
			<path class="st12" d="M60.6,194.9c-1.5,0.1-2.7,1-2.6,2c0.1,1,1.4,1.7,2.9,1.6c1.5-0.1,2.7-1,2.6-2
				C63.4,195.5,62.1,194.8,60.6,194.9z"/>
		</g>
	</g>
	<g>
		<g>
			<path class="st11" d="M82.2,165c0.9,7.5,2.4,16.9,2.3,23.3c0,3.2-0.5,5.6-1.2,6.2c-1,1.2-4.3,1.8-7,1.7c-2.2,0-4-0.3-4-0.3
				l-0.3,2.2c0,0,1.9,0.3,4.3,0.3c2.9,0,6.5-0.2,8.7-2.4c1.4-1.7,1.7-4.3,1.8-7.7c0-6.7-1.5-16.1-2.3-23.6L82.2,165z"/>
		</g>
		<g>
			<path class="st12" d="M73.6,195c-1.5-0.1-2.8,0.6-2.9,1.6c-0.1,1,1.1,1.9,2.6,2.1c1.5,0.1,2.8-0.6,2.9-1.6
				C76.3,196,75.1,195.1,73.6,195z"/>
		</g>
	</g>
	<g>
		<path class="st12" d="M67.4,143.3c-10,0-17.5,10.3-17.6,22.5l2.9,0c0-5.6,1.8-10.5,4.5-14.1c2.7-3.5,6.3-5.6,10.2-5.6
			c3.9,0,7.5,2.1,10.1,5.7c2.7,3.6,4.4,8.6,4.3,14.1l2.9,0C84.8,153.8,77.4,143.5,67.4,143.3z"/>
	</g>
</g>
<g>
	<path class="st12" d="M70.4,111.7c-2.7,3.5-5,7.9-5.9,12.6c-0.3,1.9-0.5,5.1-0.5,7v2.7c0.1,3,1,10.7,1,10.7h2.7
		c0,0-0.9-7.3-0.9-10.7v-2.7c0-1.7,0.1-4.8,0.4-6.5c0.8-4.1,2.9-8.3,5.3-11.4c2.4-3.2,5.3-5.4,6.9-5.7l-0.7-2.7
		C76,105.7,73.1,108.2,70.4,111.7z"/>
</g>
<g>
	<path class="st12" d="M133.8,111.7c-2.7-3.5-5.6-6-8.4-6.7l-0.7,2.7c1.6,0.4,4.5,2.5,6.9,5.7c2.4,3.2,4.6,7.3,5.3,11.4
		c0.3,1.6,0.4,3.7,0.4,6c0,9.3-2.1,21.5-2.1,21.6l2.7,0.5v0c0,0,2.1-12.4,2.2-22c0-2.4-0.1-4.7-0.5-6.5
		C138.8,119.6,136.5,115.2,133.8,111.7z"/>
</g>
<g>
	<circle class="st13" cx="133.7" cy="161.6" r="9.9"/>
	<path class="st9" d="M133.7,156.8c-2.6,0-4.8,2.1-4.8,4.8c0,2.6,2.1,4.8,4.8,4.8c2.6,0,4.8-2.1,4.8-4.8
		C138.5,158.9,136.4,156.8,133.7,156.8z"/>
</g>
<circle class="st7" cx="102.1" cy="147.3" r="1.6"/>
<circle class="st7" cx="102.1" cy="162.2" r="1.6"/>
<circle class="st7" cx="102.1" cy="177.1" r="1.6"/>
<path class="st14" d="M89.2,114.5c0,0,15.2,14,25.4,0S86.4,100.5,89.2,114.5z"/>
<g>
	<path class="st15" d="M147,95.7c-14.6-8.9-33.9-27.4-44.6-28.8c-12.1-1.6-47.5-28.3-46.1-12.3C60.9,106.9,42,99.8,42,99.8
		s16.6,12.8,33.7,13.5c17,0.6,36.5,2.6,53.8,0.4c17.3-2.3,31.1-14.9,31.1-14.9S155.6,100.9,147,95.7z"/>
	<path class="st16" d="M59.8,57.6c-4.1,1.3-3.2,8-3.2,10.4c0,2.5,3.5,11.3,5.8,12.2c5.9,2.4,5.9-6.8,5.9-6.8V62.9
		C68.3,62.9,64,56.3,59.8,57.6z"/>
	<path class="st16" d="M144,57.7c-4.1-1.3-8.5,5.2-8.5,5.2v10.7c0,0,0,9.5,5.9,6.8c2.3-1.1,5.8-9.8,5.8-12.2
		C147.2,65.7,148.2,59,144,57.7z"/>
	<path class="st16" d="M112.4,14.9l-20.5,0c-14.9,0-27,13.1-27,34.1l0,28.8c0,20.9,20.3,35.6,27,37.9c7.1,2.4,14,2.1,20.6,0
		c7.1-2.2,27-16.9,27-37.9l0-28.8C139.4,28,127.3,14.9,112.4,14.9z"/>
	<g>
		<g>
			<path class="st17" d="M97.2,63.3c0,0,0,8.5-5,11.2c-4,2.2-15.1,1.9-18.1-1.1c-3-3.1-4.3-11.1-4.3-11.1"/>
			<path class="st18" d="M70.1,63.1c0,0,11-8.2,28,0.4"/>
		</g>
		<line class="st19" x1="70.6" y1="64.5" x2="60.9" y2="57.3"/>
		<g>
			<path class="st17" d="M107.5,63.3c0,0,0,8.5,5,11.2c4,2.2,15.1,1.9,18.2-1.1c3.1-3.1,4.3-11.2,4.3-11.2"/>
			<path class="st20" d="M106.6,63.5c19.4-8.9,28.3-0.2,28.3-0.2"/>
		</g>
		<line class="st19" x1="134.2" y1="64.5" x2="144" y2="57.3"/>
		<path class="st21" d="M97.8,65.5c0,0,2.9-1.4,4.8-1.4c2.4,0,4.4,1.1,4.4,1.1"/>
	</g>
	<path class="st15" d="M148.7,33.6C143,11.4,115.9,2.8,112,1.8C94.9-2.4,85.4,2.1,85.4,2.1s-9.1,3.6-12.2,11.3
		c-8.5,0.1-12.7,6.5-15.9,11.1C44.6,43.1,51,59,53.8,83.2c1.8,15.3-9.6,15.4-11.9,16.6c0,0,22.6,9,24.6,6.8c2.4-2.7-9.1-16-8.7-29.2
		c0-2.1,13.7-17.4,20.4-45c0,0,14.1,17.3,46.1,16.1c-4-4.3-5.5-13-5.5-13s9.5,13.7,19.1,20.9c5.1,24.5-9.6,50.8-3.3,49.6
		c6.9-1.3,12.8-2.8,26-7.2C130.7,92.3,159.5,75,148.7,33.6z"/>
</g>
</svg>
