<?xml version="1.0" encoding="utf-8"?>
<!-- Generator: Adobe Illustrator 19.0.0, SVG Export Plug-In . SVG Version: 6.00 Build 0)  -->
<svg version="1.1" xmlns="http://www.w3.org/2000/svg" xmlns:xlink="http://www.w3.org/1999/xlink" x="0px" y="0px"
	 viewBox="0 0 16 16" style="enable-background:new 0 0 16 16;" xml:space="preserve">
<style type="text/css">
	.st0{display:none;}
	.st1{display:inline;}
	.st2{fill:none;stroke:#231F20;stroke-width:0.75;stroke-linecap:round;stroke-linejoin:round;stroke-miterlimit:10;}
	.st3{fill:#FFFFFF;}
</style>
<g id="Layer_1" class="st0">
	<path class="st1" d="M4.4,3.7c0-0.2,0-0.3,0-0.5c0-0.9,0.3-1.6,0.8-2.1c0.5-0.5,1.2-0.9,2-1C7.5,0,7.8,0,8,0l0,0l0,0c0,0,0,0,0,0
		c0.3,0,0.5,0,0.7,0c0.8,0.1,1.5,0.5,2,1c0.5,0.5,0.8,1.3,0.8,2.1c0,0.2,0,0.3,0,0.5C12.5,5,11.4,6.5,11,6.8c-0.3,1-0.8,1.6-1.4,2.1
		C9.1,9.2,8.6,9.4,8,9.4c-0.5,0-1.1-0.2-1.6-0.5C5.8,8.5,5.3,7.8,5,6.8C4.7,6.5,3.5,5,4.4,3.7L4.4,3.7z M5.3,3.2c0,0.2,0,0.3,0,0.5
		c0,0.1,0,0.3-0.1,0.4l0,0C4.6,5,5.6,6.1,5.7,6.3c0.1,0.1,0.1,0.1,0.1,0.2l0,0C6.1,7.3,6.5,7.8,7,8.1c0.3,0.2,0.7,0.3,1,0.3
		c0.4,0,0.7-0.1,1-0.3c0.5-0.3,0.9-0.9,1.1-1.6c0-0.1,0.1-0.2,0.1-0.2l0,0c0,0,1.2-1.2,0.5-2.2c-0.1-0.1-0.1-0.2-0.1-0.4l0,0
		c0-0.2,0-0.4,0-0.6c0-0.6-0.2-1.1-0.5-1.5C9.8,1.3,9.3,1.1,8.7,1c-0.2,0-0.4,0-0.6,0c0,0,0,0,0,0v0c-0.2,0-0.4,0-0.6,0
		C6.7,1.1,6.2,1.3,5.9,1.7C5.5,2,5.3,2.5,5.3,3.2z"/>
	<path class="st1" d="M8,16c-2.2,0-5-0.3-7-1.1l0,0c-0.2-0.1-0.3-0.3-0.3-0.5c0-0.4,0.1-2.8,1.7-3.7l0,0l0,0l0,0c0,0,0,0,0,0
		l3.1-1.7l0,0C5.7,8.9,6,9,6.1,9.2c0.1,0.1,0.1,0.1,0.2,0.2l0,0c0,0,0,0,0,0C6.8,9.8,7.4,10,8,10c0.6,0,1.3-0.2,1.7-0.5
		C9.8,9.4,9.9,9.3,10,9.2l0,0C10.1,9,10.4,9,10.6,9.1l3,1.7l0,0l0,0l0,0c0,0,0,0,0,0c1.7,0.9,1.7,3.7,1.7,3.7l0,0
		c0,0.2-0.1,0.4-0.3,0.4C12,16,8.1,16,8,16L8,16z M1.6,14.2c2.6,0.9,5.9,0.9,6.3,0.9c0,0,0,0,0,0v0c0,0,3.6,0,6.4-0.9
		c0-0.6-0.2-2.1-1.2-2.6c0,0,0,0,0,0l0,0l-2.8-1.5c0,0-0.1,0.1-0.1,0.1c-0.6,0.5-1.5,0.8-2.3,0.8c-0.8,0-1.6-0.3-2.3-0.7l0,0v0
		c0,0-0.1-0.1-0.1-0.1l-2.8,1.5c0,0,0,0,0,0l0,0C1.9,12.1,1.7,13.5,1.6,14.2z"/>
</g>
<g id="Layer_3">
	<g id="XMLID_29_">
		<path id="XMLID_32_" class="st2" d="M11,5.1c0,2.1-1.3,3.8-3,3.8c-1.7,0-3-1.7-3-3.8"/>
		<path id="XMLID_31_" class="st2" d="M11,5.1c0-1.9-3-1.4-3-2.5c0,1.1-3,0.7-3,2.5"/>
		<path id="XMLID_30_" class="st2" d="M6.2,8.1C5.5,8.4,5,8.6,5,8.6s-1.3-1.2-1.3-4C3.6,1,6.9-0.1,8,1c1.1-1.1,4.4,0,4.4,3.6
			c0,2.8-1.3,4-1.3,4s-0.5-0.3-1.2-0.5"/>
	</g>
	<path id="XMLID_28_" class="st2" d="M9.3,8.5v1c0,0,0.1,1.3-1.3,1.3S6.7,9.5,6.7,9.5v-1"/>
	<path id="XMLID_27_" class="st2" d="M6.3,14h7.1c0,0,0.1-1.9-0.7-2.9c-0.8-1-2.4-1.6-3.5-1.6"/>
	<path id="XMLID_26_" class="st2" d="M6.7,9.5c-1,0-2.7,0.6-3.5,1.6C2.5,12,2.6,14,2.6,14h2.1"/>
	<path id="XMLID_25_" class="st2" d="M8,14V12c1.3-0.6,1.9-1.3,1.9-2.5"/>
	<path id="XMLID_24_" class="st2" d="M8,12c-1.3-0.6-1.9-1.3-1.9-2.5"/>
	<path id="XMLID_23_" class="st2" d="M11.8,15.4c0.3,0,0.5-0.2,0.5-0.5c0,0,0-0.8,0-1.8c0-0.9-0.4-1.6-1.3-1.6
		c-0.9,0-1.3,0.7-1.3,1.6c0,1,0,1.8,0,1.8c0,0.3,0.2,0.5,0.5,0.5"/>
	<circle id="XMLID_22_" class="st2" cx="5.5" cy="14" r="0.8"/>
	<circle id="XMLID_21_" class="st3" cx="5.5" cy="14" r="0.4"/>
	<line id="XMLID_20_" class="st2" x1="5.5" y1="13" x2="5.5" y2="9.7"/>
	<line id="XMLID_19_" class="st2" x1="11" y1="11.6" x2="11" y2="9.8"/>
</g>
<g id="Master_Layer_8">
</g>
</svg>
