<?xml version="1.0" encoding="utf-8"?>
<!-- Generator: Adobe Illustrator 19.0.0, SVG Export Plug-In . SVG Version: 6.00 Build 0)  -->
<svg version="1.1" id="Layer_1" xmlns="http://www.w3.org/2000/svg" xmlns:xlink="http://www.w3.org/1999/xlink" x="0px" y="0px"
	 viewBox="56 -56 128 128" style="enable-background:new 56 -56 128 128;" xml:space="preserve">
<style type="text/css">
	.st0{fill:#1C4C02;}
</style>
<title>v</title>
<g>
	<path class="st0" d="M174.4,48c-2.9-8.7-10.7-12.3-18.6-15.4c-6.1-2.4-12.3-4.8-18.4-7.1L120,42.9l-17.4-17.4
		c-6.1,2.4-12.3,4.8-18.4,7.1c-7.9,3.1-15.7,6.7-18.6,15.4c-0.5,1.6-2.8,13.9-3.8,19.6c-0.2,1.3,0.6,2.6,2,2.9c0.1,0,0.3,0,0.4,0
		h111.6c1.4,0,2.5-1.1,2.5-2.5c0-0.1,0-0.3,0-0.4C177.2,61.8,175,49.5,174.4,48z"/>
	<path class="st0" d="M83.4,8.2c5.4,1.6,10.9,2.9,16.5,3.8l0,0l0.1,0c2.1,0.3,4.3,0.6,6.4,0.9c0.2,0,21.2,1.4,30.3-0.4l0,0
		c6.7-0.9,13.4-2.4,19.9-4.3c2.9-0.9,4.6-3.9,3.8-6.9c0-0.1,0-0.1-0.1-0.2L148.5-34c-2.1-6.6-6.5-12.2-12.5-15.8
		c-1.6-0.7-3.4-0.9-5.1-0.5c-1.5-1.3-3.2-2.4-5-3.2c-1.9-0.7-4-1-6-1c-12.9,0-24.4,8.3-28.5,20.5L79.7,1.1c-1,2.9,0.6,6,3.5,7
		C83.3,8.2,83.3,8.2,83.4,8.2z"/>
</g>
</svg>
