<?xml version="1.0" encoding="utf-8"?>
<!-- Generator: Adobe Illustrator 19.0.0, SVG Export Plug-In . SVG Version: 6.00 Build 0)  -->
<svg version="1.1" id="Layer_1" xmlns="http://www.w3.org/2000/svg" xmlns:xlink="http://www.w3.org/1999/xlink" x="0px" y="0px"
	 viewBox="232 -8 32 32" style="enable-background:new 232 -8 32 32;" xml:space="preserve">
<style type="text/css">
	.st0{fill:#FFFFFF;}
	.st1{display:none;fill:#FFFFFF;}
	.st2{clip-path:url(#SVGID_2_);fill:#FBBC05;}
	.st3{clip-path:url(#SVGID_4_);fill:#EA4335;}
	.st4{clip-path:url(#SVGID_6_);fill:#34A853;}
	.st5{clip-path:url(#SVGID_8_);fill:#4285F4;}
</style>
<path class="st0" d="M262.2,24c1,0,1.8-0.8,1.8-1.8V-6.2c0-1-0.8-1.8-1.8-1.8h-28.5c-1,0-1.8,0.8-1.8,1.8v28.5c0,1,0.8,1.8,1.8,1.8
	H262.2"/>
<path class="st1" d="M296.6,136V36.9h33.3l5-38.6h-38.3v-24.7c0-11.2,3.1-18.8,19.1-18.8l20.5,0v-34.6c-3.5-0.5-15.7-1.5-29.8-1.5
	c-29.5,0-49.7,18-49.7,51.1v28.5h-33.4v38.6h33.4V136H296.6"/>
<g>
	<g>
		<defs>
			<path id="SVGID_1_" d="M259.9,6h-10.3v4.3h5.9c-0.6,2.7-2.9,4.3-5.9,4.3c-3.6,0-6.5-2.9-6.5-6.5s2.9-6.5,6.5-6.5
				c1.6,0,2.9,0.6,4.1,1.4l3.2-3.2c-1.9-1.7-4.4-2.8-7.3-2.8c-6.1,0-11,4.9-11,11s4.9,11,11,11c5.5,0,10.5-4,10.5-11
				C260.1,7.4,260,6.7,259.9,6z"/>
		</defs>
		<clipPath id="SVGID_2_">
			<use xlink:href="#SVGID_1_"  style="overflow:visible;"/>
		</clipPath>
		<path class="st2" d="M237.6,14.5v-13l8.5,6.5L237.6,14.5z"/>
	</g>
	<g>
		<defs>
			<path id="SVGID_3_" d="M259.9,6h-10.3v4.3h5.9c-0.6,2.7-2.9,4.3-5.9,4.3c-3.6,0-6.5-2.9-6.5-6.5s2.9-6.5,6.5-6.5
				c1.6,0,2.9,0.6,4.1,1.4l3.2-3.2c-1.9-1.7-4.4-2.8-7.3-2.8c-6.1,0-11,4.9-11,11s4.9,11,11,11c5.5,0,10.5-4,10.5-11
				C260.1,7.4,260,6.7,259.9,6z"/>
		</defs>
		<clipPath id="SVGID_4_">
			<use xlink:href="#SVGID_3_"  style="overflow:visible;"/>
		</clipPath>
		<path class="st3" d="M237.6,1.5l8.5,6.5l3.5-3.1l12-1.9v-7h-24V1.5z"/>
	</g>
	<g>
		<g>
			<defs>
				<path id="SVGID_5_" d="M259.9,6h-10.3v4.3h5.9c-0.6,2.7-2.9,4.3-5.9,4.3c-3.6,0-6.5-2.9-6.5-6.5s2.9-6.5,6.5-6.5
					c1.6,0,2.9,0.6,4.1,1.4l3.2-3.2c-1.9-1.7-4.4-2.8-7.3-2.8c-6.1,0-11,4.9-11,11s4.9,11,11,11c5.5,0,10.5-4,10.5-11
					C260.1,7.4,260,6.7,259.9,6z"/>
			</defs>
			<clipPath id="SVGID_6_">
				<use xlink:href="#SVGID_5_"  style="overflow:visible;"/>
			</clipPath>
			<path class="st4" d="M237.6,14.5l15-11.5l3.9,0.5l5.1-7.5v24h-24V14.5z"/>
		</g>
	</g>
	<g>
		<g>
			<defs>
				<path id="SVGID_7_" d="M259.9,6h-10.3v4.3h5.9c-0.6,2.7-2.9,4.3-5.9,4.3c-3.6,0-6.5-2.9-6.5-6.5s2.9-6.5,6.5-6.5
					c1.6,0,2.9,0.6,4.1,1.4l3.2-3.2c-1.9-1.7-4.4-2.8-7.3-2.8c-6.1,0-11,4.9-11,11s4.9,11,11,11c5.5,0,10.5-4,10.5-11
					C260.1,7.4,260,6.7,259.9,6z"/>
			</defs>
			<clipPath id="SVGID_8_">
				<use xlink:href="#SVGID_7_"  style="overflow:visible;"/>
			</clipPath>
			<path class="st5" d="M261.6,20L246.1,8l-2-1.5l17.5-5V20z"/>
		</g>
	</g>
</g>
</svg>
