<?xml version="1.0" encoding="UTF-8"?>
<svg width="22px" height="22px" viewBox="0 0 22 22" version="1.1" xmlns="http://www.w3.org/2000/svg" xmlns:xlink="http://www.w3.org/1999/xlink">
    <title>google</title>
    <g id="Page-1" stroke="none" stroke-width="1" fill="none" fill-rule="evenodd">
        <g id="google" fill="#FFFFFF" fill-rule="nonzero">
            <path d="M5.15625,11 C5.15625,9.91001172 5.45655859,8.88894531 5.97828516,8.01466016 L5.97828516,4.30611328 L2.26973828,4.30611328 C0.79784375,6.21770703 -6.10622664e-16,8.54742969 -6.10622664e-16,11 C-6.10622664e-16,13.4525703 0.79784375,15.782293 2.26973828,17.6938867 L5.97828516,17.6938867 L5.97828516,13.9853398 C5.45655859,13.1110547 5.15625,12.0899883 5.15625,11 L5.15625,11 Z" id="Path"></path>
            <path d="M11,16.84375 L8.421875,19.421875 L11,22 C13.4526133,22 15.782293,21.2021563 17.6938867,19.7302617 L17.6938867,16.025668 L13.989293,16.025668 C13.1073594,16.5492852 12.0819961,16.84375 11,16.84375 L11,16.84375 Z" id="Path"></path>
            <path d="M5.97828516,13.9853398 L2.26973828,17.6938867 C2.56115234,18.0723555 2.87847656,18.4347969 3.22183984,18.7782031 C5.29946484,20.8557852 8.06179688,22 11,22 L11,16.84375 C8.86771875,16.84375 6.99887891,15.695625 5.97828516,13.9853398 Z" id="Path"></path>
            <path d="M22,11 C22,10.3307617 21.9394141,9.66027734 21.819875,9.00723828 L21.7231523,8.47876563 L11,8.47876563 L11,13.6350156 L16.2186406,13.6350156 C15.7118672,14.6431055 14.9326719,15.4655703 13.98925,16.0257109 L17.6938437,19.7303047 C18.0723125,19.4388906 18.4347539,19.1215664 18.7781602,18.7782031 C20.8557852,16.7005352 22,13.9382031 22,11 L22,11 Z" id="Path"></path>
            <path d="M15.1321758,6.86782422 L15.5879023,7.32355078 L19.2339297,3.67756641 L18.7782031,3.22183984 C16.7005781,1.14421484 13.9382461,0 11,0 L8.421875,2.578125 L11,5.15625 C12.5608828,5.15625 14.0283945,5.76408594 15.1321758,6.86782422 Z" id="Path"></path>
            <path d="M11,5.15625 L11,0 C8.06179688,0 5.29946484,1.14421484 3.22179688,3.22179687 C2.87843359,3.56516016 2.56110938,3.92760156 2.26969531,4.30611328 L5.97824219,8.01466016 C6.99887891,6.304375 8.86771875,5.15625 11,5.15625 Z" id="Path"></path>
        </g>
    </g>
</svg>