<?xml version="1.0" encoding="utf-8"?>
<!-- Generator: Adobe Illustrator 19.0.0, SVG Export Plug-In . SVG Version: 6.00 Build 0)  -->
<svg version="1.1" id="Capa_1" xmlns="http://www.w3.org/2000/svg" xmlns:xlink="http://www.w3.org/1999/xlink" x="0px" y="0px"
	 viewBox="0 4 16 16" style="enable-background:new 0 4 16 16;" xml:space="preserve" width="16">
<style type="text/css">
	.st0{fill:#080854;}
</style>
<g>
	<g>
		<path class="st0" d="M8,7l-5.6,5.1c0,0,0,0,0,0c0,0,0,0,0,0v7c0,0.2,0.1,0.3,0.2,0.5c0.1,0.1,0.3,0.2,0.4,0.2h3.7v-5.9h2.5v5.9H13
			c0.2,0,0.3-0.1,0.4-0.2c0.1-0.1,0.2-0.3,0.2-0.5v-7c0,0,0-0.1,0-0.1L8,7z"/>
		<path class="st0" d="M15.7,11l-2.1-2V4.6c0-0.1,0-0.2-0.1-0.2c-0.1-0.1-0.1-0.1-0.2-0.1h-1.9c-0.1,0-0.2,0-0.2,0.1
			c-0.1,0.1-0.1,0.1-0.1,0.2v2.1L8.7,4.5C8.5,4.3,8.3,4.2,8,4.2c-0.3,0-0.5,0.1-0.7,0.3l-7,6.5c-0.1,0.1-0.1,0.1-0.1,0.2
			c0,0.1,0,0.2,0.1,0.3l0.6,0.8C0.9,12.3,1,12.4,1,12.4c0.1,0,0.2,0,0.2-0.1L8,6.1l6.7,6.2c0.1,0.1,0.1,0.1,0.2,0.1h0
			c0.1,0,0.2-0.1,0.2-0.1l0.6-0.8c0.1-0.1,0.1-0.2,0.1-0.3C15.8,11.1,15.8,11,15.7,11z"/>
	</g>
</g>
</svg>
