<?xml version="1.0" encoding="UTF-8"?>
<svg width="16px" height="22px" viewBox="0 0 16 22" version="1.1" xmlns="http://www.w3.org/2000/svg" xmlns:xlink="http://www.w3.org/1999/xlink">
    <title>lock</title>
    <g id="Page-1" stroke="none" stroke-width="1" fill="none" fill-rule="evenodd">
        <g id="lock" fill="#808080" fill-rule="nonzero">
            <path d="M15.5555417,8 L14.2222083,8 L14.2222083,6.22220833 C14.2222083,2.79125 11.431,0 8,0 C4.569,0 1.77779167,2.79125 1.77779167,6.22220833 L1.77779167,8 L0.444458333,8 C0.198791667,8 0,8.19879167 0,8.44445833 L0,19.5555833 C0,20.5360417 0.797291667,21.3333333 1.77779167,21.3333333 L14.22225,21.3333333 C15.2027083,21.3333333 16,20.5360417 16,19.5555417 L16,8.44445833 C16,8.19879167 15.8012083,8 15.5555417,8 Z M9.33075,17.2842917 C9.344625,17.4097083 9.30429167,17.5355833 9.22008333,17.6297917 C9.135875,17.7239583 9.01520833,17.7777917 8.88891667,17.7777917 L7.111125,17.7777917 C6.98483333,17.7777917 6.86416667,17.7239583 6.77995833,17.6297917 C6.69575,17.535625 6.655375,17.40975 6.66929167,17.2842917 L6.94966667,14.7630417 C6.494375,14.431875 6.22225,13.908 6.22225,13.3333333 C6.22225,12.352875 7.01954167,11.5555417 8.00004167,11.5555417 C8.98054167,11.5555417 9.77783333,12.3528333 9.77783333,13.3333333 C9.77783333,13.908 9.50570833,14.431875 9.05041667,14.7630417 L9.33075,17.2842917 Z M11.5555417,8 L4.44445833,8 L4.44445833,6.22220833 C4.44445833,4.26170833 6.0395,2.66666667 8,2.66666667 C9.9605,2.66666667 11.5555417,4.26170833 11.5555417,6.22220833 L11.5555417,8 L11.5555417,8 Z" id="Shape"></path>
        </g>
    </g>
</svg>