<?xml version="1.0" encoding="UTF-8"?>
<svg width="292px" height="292px" viewBox="0 0 292 292" version="1.1" xmlns="http://www.w3.org/2000/svg" xmlns:xlink="http://www.w3.org/1999/xlink">
    <title>logo</title>
    <g id="Page-1" stroke="none" stroke-width="1" fill="none" fill-rule="evenodd">
        <g id="logo">
            <circle id="Oval" stroke="#080854" stroke-width="15" cx="145.431755" cy="145.610012" r="134.4"></circle>
            <path d="M63.8317545,67.7100116 L63.8317545,73.7100116 L96.3317545,73.7100116 L128.831755,73.7100116 L128.831755,135.410012 C128.831755,194.910012 128.731755,197.310012 126.831755,200.410012 C122.931755,206.910012 115.131755,208.510012 109.731755,204.010012 C104.331755,199.410012 103.831755,196.910012 103.831755,174.510012 C103.831755,147.510012 105.131755,144.710012 118.131755,144.710012 L123.831755,144.710012 L123.831755,139.110012 L123.831755,133.510012 L112.131755,133.910012 C98.4317545,134.310012 94.9317545,135.510012 87.6317545,142.810012 C80.7317545,149.710012 79.5317545,154.710012 80.0317545,174.610012 C80.3317545,188.810012 80.6317545,190.710012 82.9317545,195.710012 C86.7317545,203.710012 93.8317545,211.110012 101.331755,214.810012 C107.631755,217.910012 107.831755,217.910012 120.531755,217.510012 C131.231755,217.210012 134.031755,216.810012 137.331755,215.010012 C142.831755,212.110012 148.331755,206.210012 151.031755,200.210012 C153.231755,195.510012 153.331755,193.810012 153.631755,169.910012 L154.031755,144.710012 L171.931755,144.710012 L189.831755,144.710012 L189.831755,187.210012 L189.831755,229.710012 L201.831755,229.710012 L213.831755,229.710012 L213.831755,151.710012 L213.831755,73.7100116 L220.831755,73.7100116 L227.831755,73.7100116 L227.831755,67.7100116 L227.831755,61.7100116 L145.831755,61.7100116 L63.8317545,61.7100116 L63.8317545,67.7100116 Z M189.831755,103.710012 L189.831755,133.710012 L171.831755,133.710012 L153.831755,133.710012 L153.831755,103.710012 L153.831755,73.7100116 L171.831755,73.7100116 L189.831755,73.7100116 L189.831755,103.710012 Z" id="Shape" fill="#C00000" fill-rule="nonzero"></path>
            <polygon id="Path" fill="#C00000" fill-rule="nonzero" points="190.631755 234.210012 215.031755 234.210012 273.831755 284.310012 249.931755 284.310012"></polygon>
        </g>
    </g>
</svg>