<?xml version="1.0" encoding="utf-8"?>
<!-- Generator: Adobe Illustrator 19.0.0, SVG Export Plug-In . SVG Version: 6.00 Build 0)  -->
<svg version="1.1" id="Layer_1" xmlns="http://www.w3.org/2000/svg" xmlns:xlink="http://www.w3.org/1999/xlink" x="0px" y="0px"
	 viewBox="-133 335 292 292" style="enable-background:new -133 335 292 292;" xml:space="preserve">
<style type="text/css">
	.st0{fill:none;stroke:#080854;stroke-width:15;}
	.st1{fill:#C00000;}
</style>
<title>logo</title>
<circle id="Oval" class="st0" cx="13" cy="481" r="134.4"/>
<path id="Shape" class="st1" d="M-67,401.8v5.4h29.1h29.1v55.2c0,53.2-0.1,55.3-1.8,58.1c-3.5,5.8-10.5,7.2-15.3,3.2
	c-4.8-4.1-5.3-6.3-5.3-26.4c0-24.1,1.2-26.6,12.8-26.6h5.1v-5v-5l-10.5,0.4c-12.2,0.4-15.4,1.4-21.9,8c-6.2,6.2-7.2,10.6-6.8,28.4
	c0.3,12.7,0.5,14.4,2.6,18.9c3.4,7.2,9.7,13.8,16.5,17.1c5.6,2.8,5.8,2.8,17.2,2.4c9.6-0.3,12.1-0.6,15-2.2
	c4.9-2.6,9.8-7.9,12.2-13.2c2-4.2,2.1-5.7,2.3-27.1l0.4-22.5h16h16v38v38h10.7h10.7v-69.7v-69.7h6.3h6.2v-5.4v-5.7H6.3H-67
	C-67,396.4-67,401.8-67,401.8z M45.7,433.9v26.8H29.6H13.5v-26.8v-26.8h16.1h16.1V433.9z"/>
<polygon id="Path" class="st1" points="45.7,550.9 67,550.9 93.8,575.1 71.8,575.1 "/>
</svg>
