<?xml version="1.0" encoding="utf-8"?>
<!-- Generator: Adobe Illustrator 19.0.0, SVG Export Plug-In . SVG Version: 6.00 Build 0)  -->
<svg version="1.1" id="Layer_1" xmlns="http://www.w3.org/2000/svg" xmlns:xlink="http://www.w3.org/1999/xlink" x="0px" y="0px"
	 viewBox="138 -138 292 292" style="enable-background:new 138 -138 292 292;" xml:space="preserve">
<style type="text/css">
	.st0{fill:none;stroke:#080854;stroke-width:15;}
	.st1{fill:#C00000;}
</style>
<title>logo</title>
<circle id="Oval" class="st0" cx="284" cy="8" r="134.4"/>
<path id="Shape" class="st1" d="M206.9-73.3v6.3h17.6h33.9v64.2c0,61.9-0.1,64.3-2.1,67.6c-4.1,6.7-12.2,8.4-17.8,3.7
	c-5.6-4.8-6.2-7.3-6.2-30.7c0-28,1.4-30.9,14.9-30.9h5.9V1.1v-5.8l-12.2,0.5c-14.2,0.5-17.9,1.6-25.5,9.3c-7.2,7.2-8.4,12.3-7.9,33
	c0.3,14.8,0.6,16.8,3,22c4,8.4,11.3,16.1,19.2,19.9c6.5,3.3,6.7,3.3,20,2.8c11.2-0.3,14.1-0.7,17.4-2.6c5.7-3,11.4-9.2,14.2-15.4
	c2.3-4.9,2.4-6.6,2.7-31.5l0.5-26.2h18.6h18.6v44.2v44.2h12.4h12.4V14.5v-81.1h7.3h7.2v-6.3v-6.6h-85.3h-69V-73.3z M321.7-35.9v31.2
	H303h-18.7v-31.2v-31.2H303h18.7V-35.9z"/>
<polygon id="Path" class="st1" points="321.7,98.8 346.8,98.8 399.8,149.9 373.9,149.9 "/>
</svg>
