<?xml version="1.0" encoding="utf-8"?>
<!-- Generator: Adobe Illustrator 19.0.0, SVG Export Plug-In . SVG Version: 6.00 Build 0)  -->
<svg version="1.1" id="Capa_1" xmlns="http://www.w3.org/2000/svg" xmlns:xlink="http://www.w3.org/1999/xlink" x="0px" y="0px"
	 viewBox="92 -92 200 200" style="enable-background:new 92 -92 200 200;" xml:space="preserve">
<style type="text/css">
	.st0{display:none;fill:#BFE7F2;}
	.st1{display:none;fill:#1E9896;}
	.st2{display:none;fill:#FFFFFF;}
	.st3{fill:#EAAE87;}
	.st4{fill:#FACDA4;}
	.st5{fill:#FFFFFF;}
	.st6{fill:#DE6D64;}
	.st7{fill:#893449;}
</style>
<path class="st0" d="M-299.8-2251.2c1.9,23,7.6,55.2,19.9,81.5C-274.9-2210.3-283.2-2235.5-299.8-2251.2"/>
<path class="st1" d="M687.9-2335.7c13.6,13.6,13.6,35.6,0,49.1l-32.8,32.7c-13.6,13.6-35.6,13.6-49.1,0l-54.6-54.6
	c-13.6-13.6-13.6-35.6,0-49.1l32.7-32.7c13.6-13.6,35.6-13.6,49.1,0L687.9-2335.7z"/>
<path class="st1" d="M519.8-2116.1c-19.2,0-34.7-15.6-34.7-34.7v-46.3c0-19.2,15.6-34.7,34.7-34.7H597c19.2,0,34.7,15.6,34.7,34.7
	v46.3c0,19.2-15.6,34.7-34.7,34.7H519.8L519.8-2116.1z"/>
<path class="st1" d="M-46.9-2739.2c9.7,9.7,9.7,25.5,0,35.2l-23.4,23.4c-9.7,9.7-25.5,9.7-35.2,0l-39.1-39.1
	c-9.7-9.7-9.7-25.5,0-35.2l23.4-23.4c9.7-9.7,25.5-9.7,35.2,0L-46.9-2739.2z"/>
<path class="st2" d="M-170.5-2678.6c0,0,0.4,1.8,0.8,4.5c0.2,1.4,0.5,2.9,0.7,4.6c0.3,1.7,0.4,3.5,0.7,5.3c0.2,1.8,0.7,3.6,0.8,5.3
	c0,1.7-0.3,3.3-0.7,4.6c-0.4,1.4-0.9,2.5-1.4,3.3c-0.4,0.8-0.8,1.2-0.8,1.2h-0.6c0,0-0.4-0.5-0.8-1.2c-0.5-0.8-0.9-1.9-1.4-3.3
	c-0.4-1.4-0.8-2.9-0.7-4.6c0-1.7,0.6-3.5,0.8-5.3c0.2-1.8,0.4-3.6,0.7-5.3c0.2-1.7,0.5-3.3,0.7-4.6c0.4-2.7,0.8-4.5,0.8-4.5H-170.5z
	"/>
<path class="st2" d="M-64.2-2742.4c0,0,1.3,0.8,3.1,2c0.9,0.6,2,1.3,3.1,2.2c1.1,0.8,2.2,1.7,3.4,2.6c1.1,0.9,2.5,1.6,3.5,2.5
	c0.9,1,1.6,2.1,2,3.2c0.4,1.1,0.7,2.1,0.8,2.8c0.1,0.8,0.1,1.3,0.1,1.3l-0.4,0.4c0,0-0.5,0-1.3-0.2c-0.8-0.1-1.7-0.4-2.8-0.9
	c-1-0.5-2.2-1.2-3.1-2.1c-0.9-1-1.5-2.4-2.4-3.6c-0.8-1.2-1.7-2.4-2.4-3.5c-0.8-1.1-1.4-2.2-2-3.2c-1.2-1.8-1.9-3.1-1.9-3.1
	L-64.2-2742.4z"/>
<path class="st2" d="M-44.4-2864.7c0,0,1.8-0.3,4.4-0.7c1.3-0.2,2.9-0.4,4.6-0.6c1.7-0.2,3.4-0.4,5.2-0.5c1.8-0.1,3.6-0.6,5.2-0.6
	c1.7,0,3.2,0.4,4.5,0.8c1.3,0.5,2.4,1,3.2,1.5c0.8,0.5,1.2,0.8,1.2,0.8v0.6c0,0-0.5,0.4-1.2,0.8c-0.8,0.4-1.9,0.9-3.2,1.3
	c-1.3,0.4-2.9,0.7-4.6,0.6c-1.7-0.1-3.4-0.7-5.2-0.9c-1.8-0.3-3.5-0.5-5.2-0.8s-3.2-0.6-4.5-0.8c-2.6-0.5-4.4-0.9-4.4-0.9V-2864.7z"
	/>
<g>
	<path class="st3" d="M227.4,108c-0.3-8.7-1.6-13.5-1.9-17.9c-0.4-5.5-0.5-11.2,1.3-16.5c2.2-6.2,5.5-12.2,9.4-17.6
		c8.8-12.3,21-22.1,29.2-34.9c16.7-26,3.1-63.8-20.4-80.6c-24.7-17.8-61.1-18.1-84.7,1.7c-8.8,7.4-15.6,17-20.9,27.1
		c-2.6,4.9-4.3,10.4-7.6,14.9c-3.3,4.7-8.4,7.7-13.4,10.1c-4.2,2.2-8.1,4.6-5.2,10c2.2,4.3,8.9,6.3,7.6,12.2
		c-0.6,2.6-2.7,3.5-2.7,6.5c-0.1,2.9,2.2,4.1,2.2,6.8c0,2.1-2.1,3.7-1.4,6.5c0.7,2.7,2.3,3.9,2,7.2c-0.5,4.4-2.7,10.4,0.5,14.3
		c5.2,6.5,14.3,6.9,21.5,9.9c7.6,3.2,13.6,9,16.7,16.7c2.2,5.5-0.5,17.6-0.5,23.5H227.4z"/>
	<path class="st4" d="M205.9-55.7c-10.6-0.7-22.9,1.2-30.9,8.8c-9.6,9.1-7.2,26.7,4.5,33.1c8.3,4.6,17.3,8.8,24.5,15.3
		c6.7,6.1,12.7,13.9,20.5,18.5c8,4.8,18.3,4.6,25.2-2.1c6.6-6.2,8.6-16.2,8.6-25c0-12.3-3.9-22.5-13.2-30.7
		c-7.4-6.5-15.8-11.9-25.1-15.2C215.8-54.4,210.9-55.3,205.9-55.7z"/>
	<path class="st5" d="M262.4-14.6c0,0,0.3,0.9,0.7,2.6c0.3,1.7,0.7,4,0.8,6.9c0,1.4,0,3-0.1,4.7c-0.1,0.8-0.2,1.7-0.2,2.5
		c-0.2,0.8-0.2,1.7-0.4,2.7c-0.3,1.7-0.8,3.6-1.4,5.4c-0.3,0.9-0.6,1.8-1,2.7c-0.3,0.9-0.7,1.8-1.1,2.7l-0.6,1.3
		c-0.2,0.4-0.4,0.8-0.7,1.3c-0.2,0.4-0.4,0.8-0.7,1.2c-0.2,0.4-0.5,0.8-0.7,1.2c-0.2,0.4-0.5,0.8-0.7,1.2c-0.2,0.4-0.5,0.8-0.7,1.2
		c-0.2,0.4-0.5,0.7-0.7,1.2c-0.2,0.4-0.5,0.7-0.7,1.2c-1,1.5-2.2,2.8-3.2,4.2c-1.1,1.2-2.2,2.4-3.2,3.4c-0.5,0.5-1,1-1.5,1.5
		c-0.5,0.4-0.9,0.8-1.4,1.2c-0.4,0.4-0.8,0.7-1.2,1.1c-0.4,0.3-0.7,0.6-1.1,0.9c-1.3,1.1-2.1,1.7-2.1,1.7h-0.1v-0.1l0,0
		c0,0,0.7-0.7,1.8-1.9c0.6-0.6,1.2-1.3,2.1-2.2c0.4-0.4,0.8-0.9,1.2-1.3c0.4-0.5,0.9-1,1.3-1.6c1-1.1,1.9-2.2,2.9-3.5
		c1-1.3,2.1-2.7,3.1-4.1c0.2-0.3,0.5-0.7,0.7-1.1c0.2-0.4,0.5-0.7,0.7-1.2c0.2-0.4,0.5-0.7,0.7-1.2c0.2-0.4,0.5-0.7,0.7-1.2
		c0.2-0.4,0.5-0.8,0.7-1.2c0.2-0.4,0.4-0.8,0.7-1.2c0.2-0.4,0.5-0.8,0.7-1.2l0.7-1.2c0.4-0.8,0.7-1.7,1.2-2.6c0.3-0.8,0.7-1.7,1-2.7
		c0.6-1.7,1.2-3.5,1.5-5.2c0.2-0.8,0.3-1.7,0.5-2.6c0.1-0.4,0.2-0.8,0.2-1.2c0.1-0.4,0.1-0.8,0.2-1.2c0.2-1.6,0.2-3.2,0.2-4.6
		c0-2.8-0.2-5.2-0.6-6.9c-0.3-1.7-0.7-2.6-0.7-2.6l0.1-0.1L262.4-14.6z"/>
	<path class="st5" d="M248.8-30.9c0,0,1.5,1.8,3.1,5.1c0.4,0.8,0.8,1.7,1.2,2.6c0.4,0.9,0.7,1.9,1.2,3c0.3,1.1,0.7,2.2,1,3.3
		c0.3,1.2,0.5,2.3,0.7,3.5c0.2,1.2,0.3,2.4,0.4,3.6c0,0.6,0.1,1.2,0.1,1.7s0,1.2,0,1.7s-0.1,1.1-0.2,1.7c-0.1,0.5-0.1,1.1-0.2,1.6
		c-0.1,0.5-0.2,1-0.2,1.5c-0.1,0.5-0.2,0.9-0.3,1.3c-0.1,0.4-0.2,0.8-0.4,1.2c-0.2,0.4-0.2,0.7-0.4,1.1c-0.2,0.7-0.5,1.2-0.7,1.7
		c-0.4,0.9-0.7,1.5-0.7,1.5h-0.1V5.2l0,0c0,0,0.2-0.6,0.4-1.6c0.2-0.5,0.2-1.1,0.4-1.8c0.2-0.7,0.3-1.5,0.4-2.3
		c0.2-0.8,0.2-1.8,0.4-2.7c0.1-0.5,0.1-1,0.2-1.5c0.1-0.5,0.1-1.1,0.1-1.6c0.1-0.5,0.1-1.1,0.1-1.7s0-1.1,0-1.7
		c0-1.2-0.1-2.3-0.2-3.5c-0.2-1.2-0.3-2.3-0.6-3.4c-0.2-1.2-0.5-2.2-0.8-3.2c-0.6-2.1-1.3-4-2.1-5.7c-0.7-1.6-1.4-2.9-1.9-3.8
		c-0.5-0.9-0.8-1.4-0.8-1.4L248.8-30.9L248.8-30.9z"/>
	<path class="st5" d="M226.6,58.1c0,0-0.2,0.4-0.7,1.2c-0.2,0.4-0.5,0.8-0.7,1.4c-0.2,0.2-0.2,0.6-0.4,0.9c-0.2,0.3-0.2,0.7-0.4,1
		c-0.2,0.3-0.3,0.7-0.4,1.1c-0.2,0.4-0.3,0.7-0.4,1.2c-0.2,0.4-0.2,0.8-0.4,1.2c-0.1,0.2-0.2,0.4-0.2,0.7s-0.2,0.4-0.2,0.7
		c-0.2,0.4-0.2,0.9-0.4,1.4c-0.1,0.5-0.2,1-0.3,1.4c-0.2,1-0.3,2-0.5,3c-0.1,0.5-0.1,1-0.2,1.5c0,0.5-0.1,1-0.1,1.5
		c-0.1,1,0,2-0.1,2.9c0,0.9,0,1.8,0,2.7c0,0.2,0,0.4,0,0.7s0,0.4,0,0.6c0,0.4,0,0.8,0.1,1.2c0.1,0.7,0,1.5,0.1,2.1
		c0.1,0.6,0.1,1.2,0.2,1.6c0.1,0.9,0.1,1.4,0.1,1.4l0,0l-0.1,0.1l-0.1-0.1c0,0-0.2-0.5-0.4-1.3c-0.2-0.4-0.2-1-0.4-1.6
		c-0.1-0.3-0.2-0.7-0.2-1c-0.1-0.3-0.2-0.7-0.2-1.1c-0.1-0.7-0.3-1.6-0.3-2.5c0-0.4-0.1-0.9-0.1-1.3c0-0.2,0-0.5,0-0.7
		c0-0.2,0-0.5,0-0.7c0.1-1,0.1-2,0.2-3c0.1-0.5,0.2-1,0.2-1.5c0.1-0.5,0.2-1,0.2-1.5c0.2-1,0.4-2,0.7-3c0.2-0.5,0.2-1,0.4-1.5
		s0.3-0.9,0.5-1.4c0.1-0.2,0.2-0.4,0.2-0.7s0.2-0.4,0.2-0.7c0.2-0.4,0.3-0.8,0.5-1.2c0.2-0.4,0.3-0.8,0.5-1.2
		c0.2-0.4,0.3-0.7,0.5-1.1c0.2-0.3,0.3-0.7,0.5-1c0.2-0.3,0.3-0.6,0.5-0.8c0.3-0.6,0.6-1,0.8-1.4c0.5-0.7,0.8-1.2,0.8-1.2h0.1
		L226.6,58.1z"/>
	<path class="st6" d="M187.8-44.7c-2-7.4,8.8-8.1,12-2.5c-0.7-4.7,7.7-9,10.6-2.8c3.1-2.2,7.2-1.9,10.5-0.2c2.9,1.5,3.5,3.2,4.6,5.9
		c3.8-1.5,8.3-0.1,10.9,3.2c1.2,1.5,1.7,2.7,1.8,4.4c0.2,2.7-0.2,2,2.5,2.2c8.2,0.2,14.2,9.6,9.1,16.6c3.9,1.7,6.1,10,4.1,13.6
		c-0.4,0.8-1.2,1.2-1.6,1.9c-1.1,1.7-0.7,1-0.2,3c0.5,2.4,1.1,4.8,0.5,7.2c-1.2,4.6-4.2,6.8-8.5,7.7c-0.9,0.2-1.7,0.2-3.2-0.6
		c-0.2,0.2,0.5,1.5,0.2,3.3c-0.4,2.4-1.3,3.4-3.1,4.5c-2.1,1.2-4.9,1.4-7.2,2.1c-2.2,0.7-4.8,0.7-6.8,1.7c-4.2,2-3.7,8.5-5.3,12.8
		c-1.7-0.4-3.4-1.2-4.9-1.9c1.3-4.7-0.2-7.4-3.2-10.4c-1.7-1.7-4.7-3.4-5.4-5.7c-0.7-2.4-0.5-4.1,0.2-6.8c-3.5-1.7-18.9-8.5-23-10.6
		c-5.2-2.7-9-5.5-6.5-12.2c-3.1-1.5-6.1-1.4-7.5-4.7c-1.5-3.5,0.4-5.9,2.6-8.2c-5.5-5.9,4.4-16.6,6.5-13c-1.6-2.7-0.7-7.1,1.5-9.3
		C180.1-45,186.9-48,187.8-44.7z"/>
	<path class="st7" d="M253,7.8c0.6-2.2,0.2-4.5-0.2-6.7c-0.1-0.2-0.1-0.6-0.2-0.8c-0.1-0.6-0.2-1-0.3-1.2c0-0.1-0.1-0.2-0.1-0.2
		c0-0.1,0.2-0.5,0.6-0.9l0.1-0.1c0.2-0.3,0.4-0.5,0.7-0.7c0.3-0.3,0.7-0.7,1-1.2c1.2-2.1,1.2-5.5,0-8.8c-0.8-2.5-2.2-4.3-3.7-5.3
		c1.6-2.4,2-5.3,1.2-8.1c-0.9-3.4-3.6-6.5-7-8c-1.4-0.6-2.8-0.9-4.3-1c-0.6,0-1,0-1.3,0c-0.2,0-0.3,0-0.5,0c0-0.2,0-0.4-0.1-0.6
		c0-0.2,0-0.6-0.1-0.9c-0.2-1.8-0.7-3.2-2-4.7c-1.1-1.3-2.5-2.4-4.1-3.2c-2.2-1-4.7-1.2-7-0.4c-1-2.5-1.7-4.2-4.7-5.7
		c-0.2-0.1-0.4-0.2-0.7-0.3c-3.5-1.5-7.2-1.4-9.9,0.2c-0.7-1.1-1.5-1.8-2.6-2.3c-2-0.9-4.7-0.4-6.7,1.1c-1.2,0.9-1.9,2-2.2,3.2
		c-0.7-0.7-1.6-1.3-2.6-1.7c-2.9-1.2-6.2-1-8.2,0.7c-1,0.9-1.6,2.1-1.6,3.5c-2.7-1.1-7.5,1.3-8.5,2.4c-1.7,1.8-2.9,5.4-2.2,8.3
		c-1.7-0.1-3.9,1.8-5.3,3.8c-2.2,3-3.4,7.3-0.8,10.6c-1.7,2-3.9,4.7-2.2,8.6c0.8,2,2.3,2.9,3.5,3.4c0.6,0.2,1.2,0.4,1.7,0.7
		c0.7,0.2,1.3,0.5,2,0.7c-2.3,7.1,2.2,10,7,12.5c2.1,1.1,7.2,3.3,12.1,5.6c4.3,1.9,8.5,3.8,10.4,4.7c-0.5,2.2-0.8,4.2,0,6.7
		c0.6,1.7,2.3,3.2,3.8,4.5c0.6,0.5,1.2,1,1.7,1.5c2.7,2.7,4.2,5.3,3,9.7c-0.1,0.3,0.1,0.7,0.3,0.7c0.5,0.2,1.2,0.6,2,0.9
		c1.2,0.5,2.2,0.8,3.1,1.1c0.3,0.1,0.7-0.1,0.7-0.4c0.5-1.4,0.8-3.1,1.2-4.6c0.7-3.4,1.2-6.6,3.8-7.8c1.2-0.6,2.7-0.8,4-1.1
		c0.9-0.2,1.8-0.3,2.7-0.6c0.7-0.2,1.5-0.3,2.3-0.5c1.7-0.3,3.5-0.7,5-1.6c1.8-1.1,2.9-2.2,3.3-4.9c0.2-0.9,0.1-1.7,0-2.3
		c0.9,0.3,1.6,0.3,2.4,0.2C248.8,15.1,251.7,12.4,253,7.8z M243.7,14.6c-0.7,0.2-1.3,0.2-2.7-0.5c-0.1,0-0.1,0-0.2-0.1
		c-0.1-0.1-0.2-0.2-0.2-0.2c-0.1-0.1-0.1-0.1-0.2-0.2c-0.1-0.1-0.1-0.2-0.2-0.2c-0.1-0.1-0.1-0.2-0.2-0.2c-0.1-0.1-0.1-0.2-0.2-0.2
		l-0.1-0.2c0-0.1-0.1-0.2-0.1-0.2c-0.1-0.2-0.1-0.4-0.1-0.6s0-0.4,0-0.6s0-0.3,0-0.5c0-0.3,0.1-0.6,0.2-0.7c0.1-0.2,0.1-0.3,0.1-0.3
		l0,0V9.6h-0.1c0,0-0.1,0.1-0.2,0.2c-0.1,0.2-0.2,0.4-0.4,0.7c-0.1,0.2-0.2,0.3-0.2,0.6c-0.1,0.2-0.1,0.4-0.1,0.7
		c0,0.2-0.1,0.5,0,0.7c0,0.1,0,0.2,0,0.4l0.1,0.4c0,0.2,0.1,0.2,0.1,0.4s0.1,0.2,0.2,0.4c0.1,0.1,0.1,0.2,0.2,0.3
		c0.1,0.1,0.2,0.2,0.2,0.3c0.2,0.2,0.3,0.2,0.5,0.3c0,0.1,0,0.2,0.1,0.2c0.2,0.6,0.3,1.4,0.2,2.6c-0.3,2.2-1.2,3.1-2.7,4
		c-1.2,0.8-3,1.2-4.6,1.4c-0.8,0.2-1.7,0.3-2.4,0.6c-0.8,0.2-1.7,0.4-2.6,0.6c-1.5,0.2-3,0.6-4.3,1.2c-3.2,1.5-3.9,5.2-4.6,8.7
		c-0.2,1.3-0.5,2.7-0.9,3.8c-0.7-0.2-1.5-0.5-2.3-0.8c-0.5-0.2-1-0.5-1.4-0.7c1.2-4.7-0.5-7.6-3.4-10.5c-0.5-0.5-1.2-1-1.7-1.6
		c-1.5-1.2-3-2.5-3.4-3.9c-0.7-2.1-0.6-3.6,0.1-6.1c0.2,0,0.5,0,0.8,0c0.5-0.1,1-0.2,1.4-0.5c0.4-0.2,0.8-0.6,1.2-1
		c0.3-0.4,0.7-0.8,0.9-1.2l0.4-0.6l0.1-0.2l0.1-0.2c0.1-0.1,0.1-0.2,0.2-0.3c0.2-0.5,0.3-1,0.4-1.5c0.1-0.5,0.1-1,0-1.4
		c-0.1-0.4-0.2-0.8-0.4-1.2c-0.4-0.7-0.8-1.1-1.2-1.3c-0.2-0.1-0.3-0.2-0.4-0.2c-0.1-0.1-0.2-0.1-0.2-0.1h-0.1v0.1l0,0
		c0,0,0.1,0,0.2,0.1c0.1,0.1,0.2,0.2,0.3,0.3c0.2,0.2,0.7,0.7,0.9,1.4c0.2,0.7,0.3,1.4,0.1,2.2c-0.1,0.4-0.2,0.8-0.5,1.2
		c-0.1,0.1-0.1,0.2-0.2,0.2l-0.1,0.1L210,11l-0.4,0.6c-0.3,0.3-0.6,0.7-0.9,1c-0.3,0.2-0.7,0.6-1,0.7c-0.3,0.2-0.7,0.3-1,0.5
		c-0.2,0.1-0.6,0.2-0.8,0.2l0,0c-1.7-0.9-6.2-2.9-10.9-5c-4.9-2.2-9.9-4.5-12-5.5c-5.7-2.8-8.3-5.5-6.2-11.4
		c0.1-0.1,0.1-0.2,0.2-0.2c0.2-0.2,0.2-0.5,0.3-0.7c0.1-0.1,0.2-0.2,0.2-0.3s0.2-0.2,0.2-0.2c0.1-0.1,0.2-0.2,0.3-0.2
		c0.1,0,0.2-0.1,0.3-0.1c0.1,0,0.2,0,0.3,0c0.1,0,0.2,0,0.2,0c0.2,0,0.2,0.1,0.2,0.1l0,0h0.1v-0.1c0,0-0.1-0.1-0.2-0.2l-0.6-0.5
		h-0.2c-0.1-0.1-0.2-0.1-0.3-0.2c-0.2-0.1-0.3-0.1-0.5-0.1s-0.3,0-0.5,0.1c-0.2,0.1-0.3,0.2-0.5,0.2c-0.2,0.1-0.3,0.2-0.4,0.3
		c-0.2,0.1-0.2,0.2-0.4,0.3c-0.1,0.1-0.2,0.2-0.2,0.2c-0.7-0.3-1.4-0.6-2.2-0.8c-0.6-0.2-1.2-0.4-1.7-0.7c-1.1-0.4-2.1-1.1-2.7-2.7
		c-1.2-2.8,0.1-4.9,2-7.2c0.2,0.1,0.3,0.2,0.6,0.3c0.2,0.1,0.5,0.2,0.7,0.3c0.2,0.1,0.5,0.2,0.7,0.2c0.2,0.1,0.5,0.2,0.7,0.2
		c0.2,0.1,0.4,0.1,0.7,0.1c0.2,0,0.4,0,0.6,0c0.2,0,0.3,0,0.5-0.1c0.2,0,0.2-0.1,0.4-0.1c0.2-0.1,0.3-0.2,0.3-0.2V-20l0,0.2l0,0
		c0,0-0.1,0-0.3,0c-0.1,0-0.2,0-0.3,0c-0.2,0-0.2,0-0.4-0.1c-0.3-0.1-0.7-0.2-1.1-0.4c-0.4-0.2-0.7-0.4-1.2-0.7
		c-0.4-0.2-0.7-0.6-1-0.8c-0.2-0.1-0.2-0.2-0.4-0.3c-2.4-2.7-1.3-6.6,0.7-9.3c1.7-2.3,3.7-3.6,4.6-3.2c0.2,0.1,0.2,0.2,0.3,0.3l0,0
		l0.1,0.1l0.1,0.2c0.1,0.2,0.2,0.3,0.3,0.4c0.2,0.2,0.3,0.2,0.5,0.3c0.2,0.1,0.3,0.2,0.5,0.2c0.2,0.1,0.3,0.2,0.6,0.2
		c0.2,0.1,0.4,0.1,0.6,0.2c0.2,0,0.3,0.1,0.5,0c0.2,0,0.3,0,0.5-0.1c0.2,0,0.2-0.1,0.4-0.1c0.1,0,0.2-0.1,0.2-0.1
		c0.2-0.1,0.2-0.2,0.2-0.2V-33l-0.1-0.1l0,0c0,0-0.1,0-0.2,0c-0.1,0-0.2,0-0.2,0s-0.2,0-0.3,0s-0.2-0.1-0.4-0.1
		c-0.2-0.1-0.2-0.1-0.4-0.2c-0.2-0.2-0.5-0.3-0.7-0.5c-0.1-0.1-0.2-0.2-0.3-0.3s-0.2-0.2-0.2-0.3c-0.1-0.1-0.2-0.2-0.2-0.2l-0.1-0.2
		c-1.4-2.6-0.5-6.6,1.3-8.5c1-1,5.2-2.9,7.1-2.1c0.3,0.2,0.6,0.4,0.7,0.8c0,0.1,0.1,0.2,0.1,0.2c0.1,0.2,0.2,0.4,0.2,0.7
		c0,0.2,0.1,0.4,0.1,0.6s0,0.4,0,0.6s0,0.3-0.1,0.5c0,0.1,0,0.2-0.1,0.2c0,0.1-0.1,0.2-0.1,0.2c-0.1,0.2-0.2,0.2-0.2,0.3
		c-0.1,0.1-0.2,0.2-0.2,0.2c-0.2,0.2-0.2,0.2-0.2,0.2l0,0v0.1h0.1c0,0,0.1-0.1,0.2-0.2c0.1,0,0.2-0.1,0.3-0.2
		c0.1-0.1,0.2-0.2,0.3-0.3c0.1-0.1,0.1-0.2,0.2-0.2c0.1-0.1,0.1-0.2,0.2-0.2c0.1-0.1,0.1-0.2,0.2-0.3c0-0.1,0.1-0.2,0.1-0.3
		c0.1-0.2,0.1-0.4,0.1-0.7c0-0.2,0-0.5,0-0.7c0-0.4,0-0.9,0-1.3c-0.1-0.2-0.2-0.6-0.2-0.7c-0.2-1.3,0.2-2.4,1.1-3.2
		c1.5-1.3,4.4-1.5,6.7-0.5c1.3,0.6,2.4,1.5,3.1,2.7c0,0.1,0.1,0.1,0.1,0.2v0.1c0,0.2,0,0.5,0,0.8c0,0.2,0,0.2,0,0.4s0,0.2-0.1,0.4
		c0,0.2-0.1,0.3-0.1,0.4c0,0.2,0,0.3-0.1,0.5c-0.1,0.2-0.1,0.3-0.2,0.5l-0.2,0.4c-0.1,0.2-0.2,0.2-0.2,0.4c-0.1,0.1-0.1,0.2-0.2,0.2
		l-0.2,0.2c-0.2,0.2-0.4,0.5-0.7,0.7c-0.2,0.2-0.5,0.4-0.7,0.5c-0.2,0.1-0.2,0.2-0.4,0.2c-0.2,0.1-0.2,0.1-0.4,0.2
		c-0.2,0.1-0.5,0.2-0.7,0.2c-0.2,0.1-0.4,0.1-0.6,0.1c-0.3,0-0.5,0.1-0.5,0.1l0,0l-0.1,0.1l0.1,0.1c0,0,0.2,0,0.5,0.1
		c0.1,0,0.2,0,0.2,0c0.1,0,0.2,0,0.3,0c0.2,0,0.5,0,0.7-0.1c0.2,0,0.2-0.1,0.4-0.1c0.2,0,0.3-0.1,0.5-0.2c0.3-0.1,0.7-0.2,0.9-0.4
		c0.3-0.2,0.7-0.4,0.9-0.7l0.2-0.2c0.1-0.1,0.2-0.2,0.2-0.2c0.1-0.2,0.2-0.3,0.3-0.5l0.3-0.5c0.1-0.2,0.2-0.3,0.2-0.6
		c0.1-0.2,0.2-0.3,0.2-0.6c0.1-0.2,0.1-0.4,0.2-0.6c0.1-0.2,0-0.4,0.1-0.6c0-0.2,0-0.3,0-0.5c0-0.3-0.1-0.7-0.2-0.9v-0.1
		c0.1-0.2,0.1-0.2,0.1-0.4c-0.2-1.3,0.5-2.7,1.8-3.8c1.7-1.2,3.7-1.7,5.3-0.9c1,0.4,1.7,1.2,2.2,2.3l0.1,0.1c0,0.1,0.1,0.2,0.1,0.2
		c0.1,0.2,0.2,0.3,0.2,0.5c0.1,0.2,0.2,0.3,0.2,0.6c0,0.2,0.1,0.4,0.1,0.6s0,0.4,0.1,0.6c0,0.2,0,0.3,0,0.5s0,0.3-0.1,0.5
		c0,0.2-0.1,0.2-0.1,0.4c0,0.1-0.1,0.2-0.2,0.2c0,0.1-0.1,0.1-0.1,0.2l-0.1,0.1l0,0v0.1h0.1l0.1-0.1c0.1,0,0.1-0.1,0.2-0.2
		c0.1-0.1,0.2-0.2,0.2-0.2c0.1-0.1,0.2-0.2,0.2-0.4c0.1-0.2,0.2-0.3,0.2-0.5c0.1-0.2,0.2-0.4,0.2-0.6c0.1-0.2,0.1-0.4,0.1-0.7
		c0-0.2,0-0.4,0-0.7s0-0.5,0-0.7c0-0.2-0.1-0.4-0.1-0.6c2.3-1.5,5.6-1.5,8.7-0.2c0.2,0.1,0.4,0.2,0.6,0.2c2.5,1.2,3.1,2.7,4.1,5.1
		c0,0.2,0,0.2,0,0.4c0,0.5,0,1-0.1,1.4c0,0.2-0.1,0.4-0.2,0.7c-0.1,0.2-0.2,0.4-0.5,0.7c-0.3,0.3-0.9,0.4-1.5,0.5
		c-0.6,0.1-1.2,0-1.6,0c-0.5,0-0.9-0.1-1.2-0.1c-0.2,0-0.4,0-0.4,0l-0.1,0.1l0.1,0.1c0,0,0.2,0.1,0.4,0.1c0.2,0.1,0.7,0.2,1.2,0.3
		c0.5,0.1,1.1,0.2,1.7,0.3c0.3,0,0.7,0,1,0c0.3-0.1,0.7-0.2,1.1-0.4c0.3-0.2,0.6-0.5,0.8-0.7c0.2-0.3,0.4-0.7,0.5-1.1
		c0.1-0.4,0-0.7,0-1.1c0-0.1,0-0.2-0.1-0.2c2-0.7,4.3-0.7,6.4,0.2c1.4,0.6,2.6,1.6,3.6,2.7c1.2,1.4,1.6,2.5,1.7,4.1
		c0,0.3,0.1,0.7,0.1,0.9c0,0.4,0.1,0.8,0.2,1.1l-0.2,0.1c-0.1,0.1-0.2,0.2-0.3,0.2c-0.1,0.1-0.2,0.2-0.2,0.3
		c-0.1,0.1-0.2,0.2-0.2,0.3l-0.2,0.4c-0.1,0.1-0.1,0.2-0.2,0.4c-0.1,0.2-0.1,0.2-0.2,0.4c0,0.2-0.1,0.2-0.1,0.4
		c0,0.2-0.1,0.2-0.1,0.4c0,0.2-0.1,0.5-0.1,0.7c0,0.2,0,0.4,0.1,0.7c0,0.2,0.1,0.4,0.1,0.5c0,0.2,0.1,0.2,0.1,0.4
		c0.1,0.2,0.2,0.3,0.2,0.3h0.1l0.1-0.1l0,0c0,0,0-0.1-0.1-0.3c0-0.1,0-0.2,0-0.4c0-0.2,0-0.3,0-0.5c0-0.2,0.1-0.3,0.1-0.6
		c0.1-0.2,0.1-0.4,0.2-0.6c0-0.1,0.1-0.2,0.1-0.3c0.1-0.1,0.1-0.2,0.2-0.3c0.1-0.1,0.1-0.2,0.2-0.2c0.1-0.1,0.1-0.2,0.2-0.2l0.2-0.2
		c0.1-0.1,0.2-0.2,0.2-0.2c0.1-0.1,0.2-0.1,0.2-0.2c0.1-0.1,0.2-0.1,0.2-0.2c0.2-0.1,0.3-0.2,0.5-0.3c0.1-0.1,0.2-0.1,0.3-0.2
		c0.1,0,0.2,0,0.3,0c0.3,0,0.7,0,1.2,0c1.3,0,2.6,0.3,3.8,0.8c3,1.3,5.4,4.1,6.2,7.2c0.7,2.6,0.2,5.2-1.3,7.4
		c-0.3-0.1-0.7-0.2-1-0.2c-0.4,0-0.9,0-1.3,0.2c-0.4,0.1-0.9,0.3-1.2,0.6c-0.2,0.2-0.4,0.3-0.6,0.5c-0.1,0.1-0.2,0.2-0.2,0.3
		l-0.2,0.2c-0.2,0.4-0.5,0.7-0.7,1.2c-0.2,0.4-0.3,0.8-0.5,1.2c-0.2,0.8-0.3,1.6-0.4,2.2c0,0.3,0,0.7,0,0.9c0,0.2,0,0.5,0,0.7
		c0,0.4,0,0.6,0,0.6l0.1,0.1l0.1-0.1c0,0,0-0.2,0.1-0.6c0.1-0.3,0.1-0.9,0.2-1.5c0.2-0.6,0.3-1.3,0.7-2c0.2-0.3,0.3-0.7,0.6-1
		c0.1-0.2,0.2-0.3,0.3-0.5c0.2-0.2,0.2-0.3,0.4-0.5l0.2-0.2c0.1-0.1,0.1-0.1,0.2-0.2c0.2-0.1,0.2-0.2,0.4-0.2c0.3-0.2,0.7-0.3,1-0.4
		c0.3-0.1,0.7-0.2,1-0.2c0.3,0,0.6,0,0.8,0c0.1,0.1,0.2,0.2,0.2,0.2h0.1c1.4,0.7,2.7,2.4,3.6,4.8c1,2.9,1.1,6.1,0.1,7.8
		c-0.2,0.3-0.4,0.6-0.7,0.9c-0.2,0.2-0.6,0.6-0.9,1l-0.1,0.1c-0.1,0.1-0.2,0.2-0.3,0.2c-0.2,0.1-0.3,0.2-0.5,0.3
		c-0.2,0.2-0.3,0.2-0.5,0.4c-0.2,0.1-0.3,0.2-0.6,0.3c-0.2,0.1-0.4,0.2-0.7,0.2c-0.2,0.1-0.4,0.1-0.7,0.2c-0.2,0.1-0.4,0-0.7,0.1
		c-0.2,0-0.4,0-0.6,0s-0.3,0-0.5-0.1c-0.2,0-0.2-0.1-0.4-0.1C245.9-1,245.8-1,245.8-1l0,0h-0.1v0.1c0,0,0.1,0.1,0.3,0.2
		c0.1,0.1,0.2,0.1,0.3,0.2c0.2,0.1,0.3,0.2,0.5,0.2c0.2,0.1,0.4,0.1,0.6,0.2c0.2,0,0.5,0.1,0.7,0.1c0.2,0,0.5,0,0.7,0
		s0.6-0.1,0.8-0.2c0.2-0.1,0.5-0.2,0.8-0.2h0.1c0,0.1,0.1,0.2,0.1,0.2c0.1,0.2,0.2,0.6,0.3,1.1c0.1,0.2,0.1,0.6,0.2,0.8
		c0.4,2.1,0.8,4.1,0.3,6.1C250.6,11.6,248,13.8,243.7,14.6z"/>
	<path class="st7" d="M231.6,15.5c0,0-0.2,0.2-0.6,0.3c-0.2,0.1-0.4,0.2-0.7,0.3c-0.3,0.1-0.7,0.2-1.1,0.2c-0.8,0.1-1.8,0.1-2.9-0.2
		c-1.1-0.2-2.3-0.7-3.6-1.3c-0.6-0.3-1.2-0.7-1.8-1.2c-0.2-0.1-0.3-0.2-0.4-0.3c-0.2-0.1-0.3-0.2-0.4-0.4c-0.2-0.2-0.6-0.5-0.8-0.8
		c-1.1-1.2-2.2-2.4-3-4c-0.4-0.7-0.7-1.6-0.9-2.4l-0.1-0.3V5.1V4.9l0,0l0,0l0,0V4.8V4.5c0-0.2,0-0.4,0.1-0.7c0-0.2,0.1-0.4,0.1-0.7
		c0.2-0.8,0.7-1.6,1.2-2.3c0.6-0.7,1.2-1.4,1.8-2.1c0.3-0.3,0.7-0.7,1-1.1l0.2-0.2l0.1-0.1l0.1-0.1l0.1-0.2l0.4-0.6
		c0.3-0.3,0.6-0.7,0.8-1.2c0.2-0.4,0.5-0.8,0.7-1.2l0.2-0.7l0.2-0.3c0-0.1,0.1-0.2,0.1-0.3l0.2-0.7c0.1-0.2,0.1-0.5,0.1-0.7
		s0.1-0.5,0.1-0.7s0-0.5,0-0.7c0-0.5-0.1-0.9-0.2-1.4l-0.1-0.3v-0.1l0,0v-0.1l0,0l-0.1-0.2c-0.1-0.2-0.2-0.4-0.2-0.7l-0.1-0.3
		c-0.1-0.1-0.1-0.2-0.2-0.3c-0.1-0.2-0.2-0.4-0.3-0.7c-0.1-0.2-0.2-0.4-0.3-0.6s-0.2-0.4-0.3-0.6c-0.2-0.3-0.6-0.7-0.8-1
		c-1.2-1.2-2.7-2.1-4.1-2.6c-1.4-0.5-2.8-0.6-4-0.5c-1.2,0.1-2.2,0.4-3,0.7c-0.7,0.3-1.3,0.6-1.7,0.9c-0.4,0.2-0.6,0.3-0.6,0.3v0.1
		h0.1l0,0c0,0,0.2-0.1,0.6-0.2c0.1-0.1,0.2-0.1,0.3-0.2c0.1-0.1,0.2-0.1,0.4-0.2c0.3-0.1,0.7-0.2,1-0.3c0.7-0.2,1.7-0.4,2.8-0.3
		c1.1,0,2.3,0.2,3.6,0.7c1.2,0.5,2.5,1.3,3.5,2.5c0.2,0.3,0.5,0.6,0.7,0.9c0.1,0.2,0.2,0.3,0.3,0.5c0.1,0.2,0.2,0.3,0.2,0.5
		c0.1,0.2,0.2,0.3,0.2,0.5c0,0.1,0.1,0.2,0.1,0.2l0.1,0.3c0.1,0.2,0.1,0.4,0.2,0.7l0.1,0.2l0,0l0,0v0.1l0.1,0.3
		c0.3,1.7,0.2,3.3-0.4,4.9c-0.2,0.4-0.4,0.7-0.6,1.2c-0.2,0.3-0.4,0.7-0.7,1.2l-0.4,0.6l-0.1,0.2l-0.1,0.1l-0.1,0.1l-0.2,0.2
		c-0.2,0.3-0.6,0.7-0.9,1.1c-0.6,0.7-1.2,1.4-1.8,2.2s-1.1,1.7-1.2,2.7c0,0.2-0.1,0.5-0.1,0.7s-0.1,0.5,0,0.7v0.3V5l0,0v0.1v0.1v0.2
		l0.1,0.3l0.1,0.3c0.2,0.9,0.7,1.8,1.1,2.6c0.9,1.6,2.1,2.9,3.2,4c0.3,0.2,0.6,0.6,0.9,0.8c0.2,0.1,0.3,0.2,0.5,0.3
		c0.2,0.1,0.3,0.2,0.5,0.3c0.7,0.4,1.3,0.8,1.9,1.1c1.3,0.6,2.6,1,3.7,1.2c1.2,0.2,2.2,0.2,3,0.1c0.4-0.1,0.7-0.2,1.1-0.3
		c0.3-0.2,0.6-0.2,0.7-0.3c0.3-0.2,0.6-0.4,0.6-0.4v-0.1L231.6,15.5z"/>
	<path class="st7" d="M242.4-2.7L242.4-2.7c-0.7,0-1.4-0.1-2.1-0.2c-0.7-0.2-1.3-0.5-1.9-0.8c-1.2-0.7-2-2-2.6-3.2
		c-0.6-1.3-0.8-2.7-1-4.2c-0.1-0.7-0.1-1.4-0.1-2.2c0-0.7,0-1.5-0.1-2.2c-0.1-0.7-0.2-1.5-0.6-2.2c-0.3-0.7-0.7-1.3-1.2-1.9
		c-0.2-0.3-0.5-0.6-0.7-0.8c-0.2-0.3-0.4-0.6-0.6-0.8c-0.4-0.6-0.7-1.2-0.8-1.8s-0.2-1.3,0-2c0.1-0.7,0.3-1.3,0.6-2l0.2-0.5l0.2-0.4
		l0.2-0.4l0.2-0.4c0.4-0.5,0.9-1,1.5-1.3c0.2-0.2,0.3-0.4,0.2-0.7c-0.2-0.2-0.5-0.3-0.7-0.2l0,0l-1,0.5c-0.3,0.2-0.7,0.3-1,0.4
		c-0.3,0.2-0.7,0.2-1,0.3c-0.3,0.1-0.7,0.2-1.1,0.3c-0.7,0.2-1.4,0.2-2.2,0.4c-0.3,0.1-0.7,0.1-1.1,0.2c-0.2,0-0.3,0-0.5,0
		s-0.3,0-0.5,0c-0.7-0.1-1.2-0.3-1.7-0.7c-0.5-0.4-0.9-1-1.4-1.6c-0.5-0.6-1-1.2-1.5-1.7c-0.6-0.6-1.2-1-1.9-1.5
		c-0.7-0.4-1.4-0.8-2.2-1c-0.8-0.2-1.7-0.3-2.4-0.2c-0.8,0-1.6,0.2-2.3,0.3l-0.6,0.1c-0.2,0-0.3,0-0.5,0.1c-0.3,0-0.7,0-0.9-0.1
		c-0.6-0.2-1.1-0.5-1.5-1c-0.4-0.5-0.7-1.2-1-1.8c-0.2-0.7-0.6-1.4-0.6-2c-0.1-0.7-0.1-1.5-0.3-2.2l0,0c-0.1-0.2-0.2-0.4-0.5-0.4
		c-0.3,0-0.6,0.2-0.6,0.6c0,0.9,0,1.7-0.1,2.6c-0.1,0.4-0.1,0.8-0.2,1.2c-0.1,0.4-0.2,0.7-0.4,1.2c-0.2,0.4-0.3,0.7-0.6,1.1
		c-0.2,0.3-0.5,0.6-0.8,0.8c-0.7,0.4-1.5,0.7-2.3,0.9c-1.7,0.5-3.4,0.7-5.1,1.2c-0.8,0.2-1.7,0.6-2.4,1.2c-0.7,0.5-1.3,1.2-1.8,1.9
		v0.1h0.1c0.5-0.7,1.2-1.2,1.9-1.7c0.7-0.4,1.5-0.7,2.3-0.9c0.8-0.2,1.7-0.3,2.6-0.5c0.4-0.1,0.8-0.2,1.3-0.2
		c0.4-0.1,0.8-0.2,1.3-0.2c0.4-0.1,0.8-0.2,1.2-0.3c0.4-0.2,0.8-0.3,1.2-0.6c0.4-0.2,0.7-0.6,1.1-1c0.2-0.4,0.5-0.8,0.7-1.2
		c0.2-0.4,0.4-0.8,0.5-1.2l0,0c0.1,0.2,0.2,0.4,0.2,0.6c0.2,0.7,0.7,1.5,1.2,2.2c0.5,0.7,1.2,1.2,2.2,1.5c0.4,0.1,0.9,0.2,1.3,0.2
		c0.2,0,0.4,0,0.7-0.1l0.6-0.1c0.5-0.1,0.9-0.2,1.4-0.2c0,0.2,0,0.5,0,0.7c0,0.3,0,0.7-0.1,1.2c0,0.2-0.1,0.4-0.1,0.7
		s-0.1,0.5-0.2,0.7c-0.1,0.5-0.2,1-0.4,1.5c-0.2,0.5-0.4,1-0.6,1.6c-0.2,0.5-0.5,1-0.8,1.5c-0.3,0.5-0.7,0.9-1,1.3
		c-0.3,0.4-0.7,0.8-1.2,1.2c-0.4,0.3-0.8,0.6-1.2,0.8c-0.4,0.2-0.8,0.3-1.2,0.5c-0.4,0.1-0.8,0.2-1.2,0.2c-0.2,0-0.3,0-0.5,0
		s-0.3,0-0.4,0c-0.2,0-0.5-0.1-0.6-0.1c-0.2,0-0.2,0-0.2,0s0.1,0,0.2,0.1c0.2,0.1,0.3,0.2,0.6,0.2c0.2,0,0.2,0.1,0.4,0.2
		c0.2,0.1,0.3,0.1,0.5,0.1c0.4,0.1,0.8,0.1,1.3,0.1c0.2,0,0.5-0.1,0.7-0.1c0.2-0.1,0.5-0.1,0.7-0.2c0.5-0.2,1.1-0.4,1.6-0.7
		c0.5-0.3,1-0.7,1.4-1.2c0.4-0.5,0.8-1,1.2-1.5c0.3-0.6,0.7-1.1,0.8-1.7c0.2-0.6,0.4-1.2,0.6-1.7c0.2-0.6,0.2-1.2,0.2-1.7
		c0.1-0.5,0-1.1,0-1.5c0-0.5-0.1-0.9-0.2-1.2c-0.1-0.2-0.2-0.5-0.2-0.7c0.2,0,0.2,0,0.4,0c0.7,0,1.4,0.1,2,0.2
		c0.7,0.2,1.2,0.5,1.9,0.8c0.6,0.3,1.2,0.8,1.7,1.3s1,1,1.4,1.7c0.5,0.6,1,1.2,1.7,1.7c0.7,0.5,1.6,0.8,2.4,0.9c0.2,0,0.4,0,0.7,0
		c0.2,0,0.4,0,0.6,0c0.4-0.1,0.7-0.1,1.2-0.2c0.7-0.1,1.5-0.2,2.2-0.4c0.4-0.1,0.7-0.2,1.2-0.3c0.2-0.1,0.3-0.1,0.5-0.2l-0.2,0.4
		l-0.2,0.5l-0.2,0.5c-0.2,0.7-0.5,1.4-0.6,2.2c-0.1,0.7-0.1,1.6,0.1,2.3c0.2,0.7,0.6,1.5,1,2.2c0.2,0.3,0.4,0.7,0.7,0.9
		c0.2,0.3,0.5,0.6,0.7,0.8c0.4,0.6,0.8,1.2,1.2,1.7c0.1,0.2,0.2,0.5,0.2,0.7c-0.1,0-0.1-0.1-0.2-0.1c-0.1-0.1-0.2-0.1-0.3-0.1
		c-0.2-0.1-0.6-0.2-0.9-0.2c-0.2,0-0.3,0-0.6,0c-0.2,0-0.4,0-0.6,0.1c-0.4,0.1-0.8,0.2-1.2,0.4c-0.4,0.2-0.7,0.4-1.2,0.7
		c-0.3,0.2-0.7,0.6-1,0.9c-0.6,0.7-1.1,1.5-1.4,2.2c-0.3,0.8-0.4,1.6-0.5,2.2c0,0.3,0,0.7,0.1,0.9c0.1,0.2,0.1,0.5,0.2,0.7
		c0.1,0.2,0.1,0.3,0.2,0.4c0.1,0.1,0.1,0.2,0.1,0.2s0-0.1,0-0.2s0-0.2,0-0.4c0-0.3,0.1-0.9,0.2-1.5c0.1-0.3,0.2-0.6,0.3-0.9
		s0.2-0.7,0.4-1c0.2-0.3,0.4-0.7,0.6-1c0.2-0.3,0.5-0.7,0.7-0.9c0.5-0.6,1.1-1.1,1.7-1.5c0.3-0.2,0.6-0.3,0.9-0.4
		c0.3-0.1,0.6-0.2,0.9-0.2c0.3-0.1,0.6-0.1,0.8-0.1c0.2,0,0.5,0,0.7,0l0,0c0.1,0.3,0.2,0.6,0.2,0.9c0.1,0.7,0.1,1.4,0.1,2.2
		c0,0.7,0.1,1.5,0.2,2.2c0.2,1.5,0.5,3,1.2,4.3c0.6,1.3,1.5,2.7,2.8,3.5c0.7,0.4,1.3,0.7,2.1,0.9h0.2c-0.2,0.1-0.3,0.2-0.4,0.2
		c-0.2,0.2-0.5,0.3-0.7,0.5c-0.2,0.2-0.4,0.4-0.6,0.6c-0.2,0.2-0.3,0.4-0.5,0.7c-0.3,0.5-0.6,1-0.8,1.5c-0.4,1.1-0.7,2.2-1.1,3.2
		c-0.2,1-0.5,2.1-0.8,3c-0.7-0.4-1.6-0.7-2.4-0.7c-0.9-0.1-1.8-0.1-2.7,0c-0.9,0.2-1.7,0.4-2.6,0.8c-0.2,0.1-0.4,0.2-0.6,0.3
		c-0.2,0.2-0.3,0.2-0.5,0.4s-0.3,0.3-0.5,0.5s-0.2,0.4-0.3,0.6l0,0v0.1h0.1c0.1-0.2,0.2-0.4,0.3-0.6c0.2-0.2,0.2-0.3,0.4-0.5
		s0.3-0.2,0.5-0.4c0.2-0.1,0.4-0.2,0.6-0.3c0.8-0.4,1.7-0.6,2.5-0.7c0.9-0.1,1.7-0.1,2.7,0c0.8,0.2,1.7,0.4,2.4,0.9l0,0
		c0.1,0,0.2,0,0.2-0.1c0.3-1.1,0.6-2.2,0.9-3.2c0.3-1.1,0.7-2.2,1.1-3.2c0.2-0.5,0.5-1,0.8-1.4c0.2-0.2,0.3-0.4,0.5-0.7
		c0.2-0.2,0.3-0.4,0.6-0.6c0.2-0.2,0.4-0.3,0.7-0.4c0.2-0.1,0.5-0.2,0.7-0.3c0.2-0.1,0.5-0.2,0.7-0.2c0.1,0,0.2,0,0.3,0
		c0.2,0,0.3,0,0.5,0l0,0c0.2,0,0.2-0.2,0.2-0.2C242.7-2.6,242.6-2.7,242.4-2.7z"/>
	<path class="st7" d="M219.1-18.6c0.2-0.3,0.4-0.7,0.7-1.1c0.1-0.2,0.2-0.4,0.3-0.7c0.1-0.1,0.1-0.2,0.2-0.3l0.1-0.2l0.1-0.2
		c0.1-0.2,0.2-0.4,0.3-0.6c0.2-0.2,0.2-0.3,0.4-0.5c0.2-0.3,0.5-0.6,0.8-0.7c0.2-0.1,0.2-0.2,0.4-0.2c0.2-0.1,0.2-0.1,0.3-0.2
		c0.2-0.1,0.3-0.1,0.3-0.1s0,0-0.1-0.1c-0.1,0-0.2-0.1-0.2-0.1c-0.1,0-0.2-0.1-0.4-0.1s-0.4,0-0.6,0c-0.4,0.1-0.9,0.3-1.3,0.7
		c-0.4,0.3-0.7,0.7-1.1,1.2l-0.1,0.2l-0.1,0.2c-0.1,0.1-0.1,0.2-0.2,0.3c-0.1,0.2-0.2,0.5-0.2,0.7c-0.2,0.5-0.2,0.9-0.2,1.3
		c-0.1,0.4-0.1,0.7,0,1c0,0.1,0.1,0.2,0.1,0.2l0.1,0.1c0,0,0,0,0-0.1s0.1-0.1,0.1-0.2C218.7-18,218.9-18.2,219.1-18.6z"/>
	<path class="st7" d="M213.8-10.2L213.8-10.2L213.8-10.2L213.8-10.2c-0.1-0.1-0.2,0.1-0.3,0.3c-0.2,0.2-0.4,0.6-0.8,1
		c-0.4,0.4-0.9,0.8-1.5,1.3c-0.6,0.4-1.4,0.9-2.2,1.2c-0.8,0.3-1.8,0.6-2.9,0.7c-1,0.1-2.1-0.2-3.1-0.7c-1-0.5-2-1.2-2.8-2.1
		c-0.4-0.4-0.8-0.9-1.2-1.4c-0.2-0.2-0.3-0.5-0.5-0.7s-0.3-0.6-0.5-0.8c-0.7-1.2-1.2-2.2-1.7-3.4s-0.8-2.3-1-3.5
		c-0.2-1.2-0.1-2.3,0.1-3.4c0.2-1,0.7-2,1.2-2.8c1-1.7,2.2-2.9,3.2-3.3c0.5-0.2,0.9-0.2,1.2-0.2c0.2,0,0.2,0.1,0.3,0.1
		c0.1,0,0.1,0,0.1,0h0.1V-28c0,0,0,0-0.1,0c-0.1,0-0.2-0.1-0.3-0.1c-0.3-0.1-0.8-0.1-1.3,0.2c-1.1,0.4-2.4,1.7-3.5,3.2
		c-0.5,0.8-1.1,1.7-1.4,2.9c-0.3,1.2-0.4,2.4-0.2,3.7c0.1,1.2,0.4,2.6,0.9,3.7l0.1,0.2h-0.1c-0.2-0.1-0.6,0-1,0.1
		c-0.4,0.1-0.8,0.2-1.2,0.6c-0.2,0.2-0.3,0.3-0.5,0.5c-0.2,0.2-0.3,0.4-0.5,0.6c-0.3,0.4-0.6,0.8-0.7,1.3c-0.1,0.2-0.2,0.5-0.2,0.7
		c0,0.2,0,0.4,0,0.7c0,0.2,0.1,0.3,0.2,0.5c0.1,0.2,0.2,0.2,0.2,0.3c0.1,0.1,0.2,0.1,0.2,0.2l0.1,0.1h0.1v-0.1l0,0l-0.1-0.1
		c0-0.1-0.1-0.1-0.2-0.2c-0.1-0.2-0.2-0.4-0.2-0.7s0.2-0.7,0.3-1c0.2-0.3,0.5-0.7,0.8-0.9c0.3-0.3,0.7-0.5,1-0.7
		c0.3-0.2,0.6-0.5,0.8-0.7c0.2-0.2,0.4-0.4,0.6-0.5l0.1-0.1c0.4,1.1,0.9,2.1,1.4,3.1c0.2,0.3,0.3,0.6,0.5,0.9
		c0.2,0.2,0.3,0.6,0.5,0.8c0.4,0.6,0.8,1.1,1.2,1.6c0.4,0.5,0.9,1,1.5,1.4c0.5,0.4,1.1,0.7,1.7,1.1c1.2,0.6,2.6,0.9,3.7,0.7
		c0.2,0,0.6-0.1,0.9-0.2c0.2-0.1,0.6-0.2,0.8-0.2c0.5-0.2,1-0.3,1.5-0.6c0.9-0.5,1.7-1,2.3-1.6c0.6-0.6,1.1-1.2,1.4-1.7
		c0.3-0.5,0.5-0.9,0.7-1.2C213.7-10,213.8-10.2,213.8-10.2z"/>
	<path class="st7" d="M200,0.5c-0.5-0.7-1.2-1.4-2-2c-0.9-0.5-1.8-0.9-2.8-1.2c-1-0.3-2.1-0.7-3.1-1.1c-1-0.4-2-0.9-2.7-1.7
		c-0.2-0.2-0.3-0.3-0.6-0.6c-0.2-0.2-0.3-0.4-0.5-0.7c-0.3-0.4-0.6-0.9-0.8-1.3C187-9,186.8-10,186.8-11c0-0.5,0-1.1-0.1-1.6
		c-0.1-0.6-0.2-1.1-0.4-1.7v-0.1v-0.1l0,0l0,0l-0.1-0.1h-0.1c-0.1-0.1-0.1-0.2-0.2-0.3c-0.1-0.1-0.2-0.2-0.2-0.3s-0.2-0.2-0.2-0.3
		c-0.3-0.3-0.7-0.6-1-0.7l0.1-0.1c0.1,0,0.1,0,0.2-0.1s0.1-0.1,0.2-0.2c0.1-0.1,0.2-0.1,0.2-0.2c0.1-0.1,0.2-0.2,0.2-0.2
		c0.2-0.3,0.5-0.8,0.7-1.4c0.2-0.6,0.2-1.2,0.2-2c-0.1-0.7-0.2-1.5-0.3-2.2c-0.1-0.4-0.2-0.8-0.3-1.2c-0.2-0.4-0.2-0.8-0.4-1.2
		c-0.3-0.8-0.6-1.7-0.7-2.5c-0.2-0.8-0.2-1.7,0-2.6c0.1-0.4,0.2-0.8,0.3-1.2c0.2-0.4,0.3-0.8,0.5-1.2c0.4-0.7,0.8-1.5,1.3-2.2
		c0.2-0.3,0.5-0.6,0.8-0.8c0.2-0.2,0.6-0.4,0.9-0.6s0.6-0.3,0.9-0.3c0.3-0.1,0.7-0.2,1-0.2c0.7-0.1,1.2-0.1,1.8,0
		c0.5,0.1,1,0.2,1.2,0.4c0.2,0.1,0.2,0.2,0.3,0.3s0.2,0.2,0.2,0.3c0.1,0.2,0.1,0.3,0.1,0.3l0,0l0.1,0.1l0.1-0.1c0,0,0-0.2,0-0.3
		c0-0.1-0.1-0.2-0.1-0.4c-0.1-0.2-0.2-0.3-0.3-0.5c-0.3-0.3-0.8-0.6-1.4-0.8c-0.6-0.2-1.2-0.3-2-0.3s-1.7,0-2.5,0.4
		c-0.8,0.3-1.6,1-2.2,1.7s-1.1,1.6-1.4,2.5c-0.2,0.4-0.3,0.9-0.5,1.4c-0.2,0.4-0.2,1-0.3,1.4c-0.1,1-0.1,2,0.2,2.9
		c0.2,0.9,0.6,1.8,0.9,2.7c0.3,0.8,0.7,1.6,0.9,2.3c0.2,0.7,0.4,1.5,0.5,2.2c0.1,0.7,0.1,1.3,0,1.8c-0.1,0.6-0.2,1-0.5,1.3
		c-0.1,0.1-0.1,0.2-0.2,0.2c-0.1,0.1-0.1,0.1-0.2,0.2s-0.1,0.1-0.2,0.2h-0.2c-0.1,0.1-0.2,0.1-0.2,0.1l0,0c-0.8-0.4-1.7-0.6-2.4-0.6
		c-0.7,0-1.3,0.1-1.8,0.2c-0.5,0.2-0.8,0.3-1.1,0.5c-0.2,0.2-0.3,0.2-0.3,0.2v0.1h0.1l0,0c0,0,0.2-0.1,0.4-0.2
		c0.2-0.1,0.6-0.2,1.1-0.2c0.5-0.1,1.1-0.1,1.7,0.1c0.7,0.1,1.3,0.3,2,0.7c0.3,0.2,0.6,0.4,0.8,0.7c0.1,0.1,0.2,0.2,0.2,0.2l0.2,0.2
		c0.1,0.1,0.1,0.2,0.2,0.2l0.1,0.2v0.1l0,0l0,0l0,0c0.2,0.4,0.2,0.8,0.2,1.2c0,0.5,0,1,0.1,1.5c0,0.2,0.1,0.6,0.1,0.8v0.2v0.2v0.1
		l0.1,0.4c0.2,0.6,0.4,1.2,0.7,1.7c0.3,0.5,0.7,1,1,1.5c0.2,0.2,0.3,0.4,0.6,0.7c0.2,0.2,0.4,0.4,0.7,0.6c0.9,0.7,2,1.2,3.1,1.7
		s2.2,0.7,3.2,1c1,0.3,2,0.7,2.7,1.1c0.8,0.5,1.5,1.1,2,1.7c0.5,0.7,0.8,1.3,0.9,2s-0.2,1.2-0.4,1.6c-0.3,0.3-0.7,0.6-0.8,0.7
		C199.1,4.9,199,5,199,5v0.1h0.1c0,0,0.2-0.1,0.4-0.2c0.2-0.1,0.6-0.3,1-0.7c0.2-0.2,0.3-0.4,0.5-0.7c0.1-0.3,0.2-0.7,0.2-1
		C200.8,2,200.5,1.2,200,0.5z"/>
	<path class="st5" d="M237.9,16.9c0,0,0,0.1,0,0.2c0,0.2,0,0.3,0,0.7c-0.1,0.2-0.1,0.6-0.2,1c0,0.1-0.1,0.2-0.1,0.2
		c-0.1,0.1-0.1,0.2-0.2,0.2c-0.1,0.1-0.1,0.2-0.2,0.2c-0.1,0.1-0.2,0.2-0.2,0.2c-0.2,0.2-0.3,0.3-0.5,0.5s-0.4,0.3-0.7,0.5
		c-0.2,0.2-0.5,0.2-0.7,0.4c-0.2,0.2-0.5,0.2-0.8,0.3c-0.6,0.2-1.2,0.3-1.7,0.5c-0.6,0.1-1.2,0.2-1.8,0.2c-0.6,0.1-1.2,0.1-1.8,0.2
		s-1.1,0.2-1.7,0.2c-0.5,0.1-1.1,0.2-1.5,0.3c-0.5,0.1-0.9,0.2-1.3,0.4c-0.2,0.1-0.4,0.2-0.6,0.2c-0.2,0.1-0.3,0.2-0.5,0.2
		c-0.3,0.2-0.6,0.2-0.8,0.4c-0.5,0.2-0.7,0.4-0.7,0.4h-0.1v-0.1c0,0,0.2-0.2,0.6-0.7c0.4-0.4,1-0.9,1.8-1.4c0.2-0.1,0.4-0.2,0.7-0.3
		c0.2-0.1,0.5-0.2,0.7-0.3c0.5-0.2,1.1-0.3,1.7-0.4s1.2-0.2,1.8-0.2c0.3,0,0.6,0,0.9,0h0.9c0.6,0,1.2-0.1,1.7-0.1
		c0.6-0.1,1.2-0.2,1.7-0.3c0.2-0.1,0.5-0.2,0.7-0.2c0.2-0.1,0.5-0.2,0.7-0.3c0.2-0.2,0.4-0.2,0.6-0.4s0.4-0.2,0.5-0.4
		c0.1-0.1,0.2-0.2,0.2-0.2c0.1-0.1,0.1-0.2,0.2-0.2c0.1-0.1,0.1-0.2,0.2-0.2c0.1-0.1,0.1-0.2,0.2-0.2c0.2-0.3,0.2-0.6,0.3-0.8
		c0.1-0.2,0.1-0.4,0.1-0.6S237.8,16.9,237.9,16.9L237.9,16.9L237.9,16.9z"/>
	<path class="st5" d="M241.7-32.5c0,0,0.9,0.2,2.2,0.8c0.6,0.3,1.3,0.7,2,1.2c0.7,0.5,1.4,1.2,2,1.9c0.3,0.3,0.6,0.7,0.8,1.2
		c0.1,0.2,0.2,0.4,0.3,0.7s0.2,0.4,0.2,0.7c0.1,0.4,0.2,0.9,0.2,1.3c0,0.2,0,0.4,0,0.6s0,0.4-0.1,0.6c0,0.2-0.1,0.3-0.1,0.5
		s-0.1,0.3-0.1,0.4c-0.1,0.2-0.2,0.5-0.2,0.7c-0.2,0.4-0.3,0.6-0.3,0.6h-0.1v-0.1l0,0c0,0,0-0.2,0-0.7c0-0.2,0-0.4,0-0.7
		s-0.1-0.6-0.1-0.9c-0.1-0.3-0.1-0.7-0.2-1c-0.1-0.3-0.2-0.7-0.2-1.1c-0.1-0.3-0.2-0.7-0.3-1.2c-0.2-0.4-0.3-0.7-0.6-1.1
		c-0.9-1.4-2.2-2.6-3.4-3.3C242.6-32.1,241.8-32.4,241.7-32.5L241.7-32.5L241.7-32.5z"/>
	<path class="st5" d="M249.4-15.1c0,0,0.5,0.5,1.2,1.3c0.7,0.8,1.4,2,1.8,3.4c0.1,0.3,0.2,0.7,0.3,1c0.1,0.3,0.2,0.7,0.2,1.1
		c0,0.3,0,0.7-0.1,1c-0.1,0.3-0.2,0.6-0.3,0.8c-0.2,0.5-0.6,0.8-0.8,1.1c-0.2,0.2-0.4,0.3-0.4,0.3h-0.1v-0.1l0,0c0,0,0-0.2,0.1-0.5
		c0-0.2,0.1-0.3,0.1-0.5c0-0.1,0-0.2,0.1-0.3c0-0.1,0-0.2,0-0.3c0-0.2,0.1-0.5,0.1-0.7c0-0.2,0-0.5,0-0.8c0-0.2,0-0.6,0-0.9
		c0-0.3-0.1-0.7-0.1-0.9c-0.2-0.7-0.3-1.2-0.6-1.8c-0.2-0.6-0.5-1.1-0.7-1.6C249.8-14.6,249.3-15.1,249.4-15.1L249.4-15.1
		L249.4-15.1z"/>
	<path class="st5" d="M178-6.6c0,0-0.1,0.2-0.2,0.5c-0.1,0.2-0.1,0.3-0.1,0.6c0,0.1,0,0.2,0,0.3c0,0.2,0,0.2,0,0.4
		c0,0.2,0,0.2,0.1,0.4c0,0.2,0.1,0.3,0.1,0.4c0.1,0.2,0.1,0.3,0.2,0.5c0,0.1,0.1,0.2,0.1,0.2l0.2,0.2c0.1,0.2,0.2,0.3,0.2,0.4
		c0.1,0.2,0.2,0.2,0.3,0.4l0.2,0.2l0.2,0.2l0.4,0.4c0.2,0.2,0.6,0.5,0.9,0.7s0.7,0.4,0.9,0.7c0.2,0.1,0.2,0.2,0.4,0.3
		c0.2,0.1,0.2,0.2,0.4,0.3c0.2,0.2,0.5,0.4,0.7,0.6c0.5,0.3,0.8,0.7,1.1,0.9c0.2,0.2,0.4,0.4,0.4,0.4l0,0v0.1h-0.1
		c0,0-0.2,0-0.6-0.1c-0.2,0-0.4-0.1-0.7-0.2c-0.2-0.1-0.5-0.2-0.8-0.2c-0.2-0.1-0.6-0.2-0.9-0.4s-0.7-0.3-0.9-0.6
		c-0.3-0.2-0.7-0.5-0.9-0.8c-0.2-0.3-0.6-0.6-0.8-0.9l-0.4-0.5l-0.2-0.2l-0.2-0.2c-0.1-0.2-0.2-0.3-0.3-0.5
		c-0.1-0.2-0.2-0.4-0.2-0.6l-0.1-0.3c0-0.1-0.1-0.2-0.1-0.2c-0.1-0.2-0.1-0.3-0.1-0.6c0-0.2,0-0.3-0.1-0.5c0-0.2,0-0.3,0-0.5
		s0-0.3,0.1-0.4c0-0.2,0.1-0.2,0.1-0.4c0.1-0.2,0.2-0.4,0.2-0.6c0.1-0.2,0.2-0.2,0.2-0.3C178-6.5,178-6.5,178-6.6L178-6.6L178-6.6
		L178-6.6z"/>
	<path class="st5" d="M184.6-43.9c0,0-0.2,0-0.4,0.1c-0.2,0.1-0.7,0.2-1.1,0.4c-0.2,0.1-0.4,0.2-0.7,0.3c-0.2,0.1-0.4,0.2-0.7,0.4
		c-0.2,0.2-0.4,0.3-0.7,0.6c-0.1,0.1-0.2,0.2-0.3,0.3c-0.1,0.1-0.2,0.2-0.2,0.3c-0.2,0.2-0.3,0.5-0.5,0.7l-0.1,0.2l0,0.2
		c-0.1,0.2-0.1,0.2-0.2,0.3c-0.2,0.2-0.2,0.5-0.3,0.7c-0.2,0.2-0.2,0.4-0.2,0.7c-0.1,0.2-0.2,0.4-0.2,0.6c-0.1,0.2-0.2,0.3-0.2,0.5
		c-0.1,0.2-0.2,0.4-0.2,0.4l0,0h-0.1l0,0c0,0-0.1-0.2-0.2-0.4c0-0.2-0.1-0.3-0.1-0.5c0-0.2,0-0.4,0-0.7c0-0.2,0-0.5,0.1-0.8
		c0.1-0.2,0.2-0.6,0.3-0.9c0.1-0.2,0.2-0.2,0.2-0.4c0.1-0.2,0.2-0.2,0.3-0.4c0.2-0.2,0.4-0.5,0.7-0.7c0.2-0.1,0.2-0.2,0.4-0.3
		c0.2-0.1,0.2-0.2,0.4-0.3c0.2-0.2,0.6-0.3,0.8-0.5c0.2-0.1,0.6-0.2,0.8-0.3c0.2-0.1,0.5-0.2,0.7-0.2c0.2-0.1,0.4-0.1,0.7-0.2
		c0.2,0,0.3-0.1,0.5-0.1c0.2,0,0.4,0,0.4,0l0,0L184.6-43.9L184.6-43.9z"/>
	<path class="st5" d="M197.6-20.5c0,0,0,0.2,0.1,0.7c0.1,0.4,0.1,1,0.2,1.7c0.1,0.3,0.2,0.7,0.2,1.1c0.1,0.4,0.2,0.8,0.3,1.2
		c0.2,0.4,0.3,0.8,0.5,1.2c0.1,0.2,0.2,0.4,0.3,0.6l0.2,0.3l0.2,0.3c0.2,0.4,0.5,0.8,0.7,1.2c0.2,0.2,0.2,0.3,0.4,0.5
		s0.3,0.3,0.4,0.5c0.2,0.2,0.2,0.3,0.4,0.5c0.2,0.2,0.2,0.2,0.4,0.4s0.2,0.2,0.4,0.4c0.2,0.2,0.2,0.2,0.4,0.3
		c0.2,0.2,0.5,0.5,0.7,0.7c0.2,0.2,0.4,0.3,0.6,0.5c0.3,0.2,0.5,0.5,0.5,0.5l0,0v0.1h-0.1c0,0-0.2-0.1-0.7-0.2
		c-0.2-0.1-0.5-0.2-0.7-0.2c-0.2-0.1-0.6-0.3-0.9-0.5c-0.2-0.1-0.3-0.2-0.5-0.3c-0.2-0.2-0.3-0.2-0.5-0.4c-0.2-0.2-0.3-0.2-0.5-0.4
		c-0.2-0.2-0.3-0.3-0.5-0.5s-0.3-0.3-0.4-0.6c-0.2-0.2-0.2-0.4-0.3-0.7c-0.1-0.2-0.2-0.4-0.3-0.7l-0.3-0.7l-0.2-0.3l-0.2-0.3
		c-0.1-0.2-0.2-0.5-0.2-0.7c-0.2-0.5-0.2-0.9-0.4-1.3c-0.1-0.4-0.2-0.9-0.2-1.3c-0.1-0.4-0.1-0.8-0.2-1.2c-0.1-0.7-0.1-1.3,0-1.7
		C197.4-20.2,197.5-20.5,197.6-20.5L197.6-20.5L197.6-20.5L197.6-20.5z"/>
	<path class="st5" d="M249.8,1.4c0,0,0.4,0.8,0.7,2.2c0.2,0.7,0.2,1.5,0.2,2.3c0,0.4-0.1,0.9-0.2,1.3c-0.1,0.5-0.2,0.9-0.4,1.3
		c-0.2,0.4-0.4,0.9-0.7,1.3c-0.1,0.2-0.2,0.4-0.4,0.6c-0.2,0.2-0.3,0.3-0.4,0.5c-0.2,0.2-0.3,0.3-0.5,0.4c-0.2,0.2-0.3,0.2-0.5,0.3
		c-0.3,0.2-0.7,0.4-1,0.5c-0.3,0.2-0.7,0.2-0.9,0.3c-0.2,0.1-0.5,0.1-0.7,0.2c-0.4,0.1-0.7,0.1-0.7,0.1l-0.1-0.1v-0.1l0,0
		c0,0,0.2-0.2,0.5-0.3c0.2-0.1,0.3-0.2,0.6-0.4c0.2-0.2,0.5-0.3,0.7-0.5c0.2-0.1,0.2-0.2,0.4-0.3c0.2-0.1,0.2-0.2,0.4-0.3
		c0.2-0.2,0.6-0.5,0.8-0.7c0.2-0.2,0.2-0.2,0.4-0.4s0.2-0.2,0.4-0.4c0.2-0.3,0.5-0.7,0.7-1c0.2-0.3,0.3-0.7,0.5-1.2
		c0.1-0.4,0.2-0.8,0.2-1.2c0.1-0.8,0.2-1.6,0.1-2.2c0-0.7-0.2-1.2-0.2-1.6c-0.1-0.4-0.2-0.6-0.2-0.6L249.8,1.4L249.8,1.4z"/>
	<path class="st5" d="M236.9-1.9c-0.3,0.4-0.6,0.9-0.9,1.4c-0.2,0.2-0.2,0.5-0.3,0.7c-0.1,0.2-0.2,0.5-0.3,0.7
		c-0.1,0.2-0.2,0.5-0.2,0.7c0,0.2-0.1,0.2-0.1,0.4s-0.1,0.2-0.1,0.4L234.9,3c0,0.2,0,0.2,0,0.4c0,0.2,0,0.5,0.1,0.7
		c0,0.3-0.2,0.6-0.5,0.6h-0.1h-0.1h-0.3c-0.1,0-0.2,0-0.3,0c-0.1,0-0.2,0-0.3,0c-0.2,0-0.2,0-0.3,0c-0.1,0-0.2,0-0.3,0
		c-0.1,0-0.2,0-0.3,0.1c-0.1,0-0.2,0-0.3,0.1c-0.2,0-0.2,0-0.4,0.1c-0.2,0-0.5,0.1-0.7,0.1s-0.5,0.1-0.7,0.2
		c-0.5,0.1-1.1,0.2-1.6,0.3l0,0l-0.1-0.1V5.4c0.2-0.2,0.4-0.4,0.7-0.6c0.1-0.1,0.2-0.2,0.3-0.2c0.1-0.1,0.2-0.2,0.3-0.2
		c0.2-0.2,0.5-0.2,0.7-0.4c0.2-0.1,0.2-0.1,0.4-0.2c0.2-0.1,0.2-0.1,0.4-0.2c0.2-0.1,0.6-0.2,0.8-0.2c0.2,0,0.6-0.1,0.9,0
		c0.2,0,0.3,0,0.4,0c0.2,0,0.3,0,0.4,0.1c0.2,0,0.3,0,0.4,0.1l0.4,0.1L234,4.2V3.7c0-0.2,0-0.3,0-0.4c0-0.2,0-0.3,0.1-0.4l0.1-0.4
		c0-0.2,0.1-0.2,0.2-0.4s0.1-0.2,0.2-0.4c0.1-0.2,0.2-0.5,0.3-0.8c0.2-0.5,0.6-1,0.9-1.4S236.5-1.5,236.9-1.9L236.9-1.9L236.9-1.9z"
		/>
</g>
</svg>
