<?xml version="1.0" encoding="utf-8"?>
<!-- Generator: Adobe Illustrator 19.0.0, SVG Export Plug-In . SVG Version: 6.00 Build 0)  -->
<svg version="1.1" id="Master_Layer_8" xmlns="http://www.w3.org/2000/svg" xmlns:xlink="http://www.w3.org/1999/xlink" x="0px"
	 y="0px" viewBox="0 0 16 16" style="enable-background:new 0 0 16 16;" xml:space="preserve">
<style type="text/css">
	.st0{fill:none;stroke:#231F20;stroke-width:0.75;stroke-linecap:round;stroke-linejoin:round;stroke-miterlimit:10;}
	.st1{fill:#231F20;}
	.st2{fill:none;stroke:#231F20;stroke-width:0.25;stroke-linecap:round;stroke-linejoin:round;stroke-miterlimit:10;}
</style>
<g id="XMLID_16_">
	<g id="XMLID_25_">
		<g id="XMLID_26_">
			<path id="XMLID_28_" class="st0" d="M9.7,9.6v0.7c0,0-0.2,1.7-1.7,1.7s-1.7-1.7-1.7-1.7V9.6"/>
			<path id="XMLID_27_" class="st0" d="M6.3,10.4c-1.2,0-3.3,0.6-4.1,1.7c-0.8,1.1-0.7,3.2-0.7,3.2h13.1c0,0,0.1-2.1-0.7-3.2
				c-0.8-1.1-2.9-1.7-4.1-1.7"/>
		</g>
	</g>
	<g id="XMLID_23_">
		<polygon id="XMLID_24_" class="st1" points="8.7,2.4 8.2,2.4 8.2,1.9 7.8,1.9 7.8,2.4 7.3,2.4 7.3,2.9 7.8,2.9 7.8,3.4 8.2,3.4 
			8.2,2.9 8.7,2.9 		"/>
	</g>
	<path id="XMLID_22_" class="st0" d="M4.4,5.2c0,2.5,1.6,5.1,3.6,5.1c2,0,3.6-2.6,3.6-5.1"/>
	<path id="XMLID_21_" class="st2" d="M10.7,5c0.1,0.7,0,1.5,0.7,1.5"/>
	<path id="XMLID_20_" class="st2" d="M6.9,4.5C7.2,4.8,7.5,5.1,8,5.1c0.5,0,0.8-0.3,1.1-0.6"/>
	<path id="XMLID_19_" class="st2" d="M4.5,6.5c0.7,0,0.6-0.8,0.7-1.5"/>
	<path id="XMLID_18_" class="st0" d="M8,4.4c-1.3,0-2.8,0.4-3.6,1.2c-0.2-2.4-0.3-3.8,1-4.4C6.7,0.6,8,0.7,8,0.7s1.3-0.1,2.6,0.5
		c1.3,0.6,1.2,2,1,4.4C10.8,4.9,9.3,4.4,8,4.4z"/>
	<rect id="XMLID_17_" x="10.1" y="12.7" class="st2" width="2.8" height="1.8"/>
</g>
</svg>
