<?xml version="1.0" encoding="utf-8"?>
<!-- Generator: Adobe Illustrator 19.0.0, SVG Export Plug-In . SVG Version: 6.00 Build 0)  -->
<svg version="1.1" id="Layer_1" xmlns="http://www.w3.org/2000/svg" xmlns:xlink="http://www.w3.org/1999/xlink" x="0px" y="0px"
	 viewBox="56 -56 128 128" style="enable-background:new 56 -56 128 128;" xml:space="preserve">
<style type="text/css">
	.st0{display:none;}
	.st1{display:inline;fill:#1C4C02;}
	.st2{fill:#5E2E00;}
</style>
<title>v</title>
<g class="st0">
	<path class="st1" d="M174.4,48c-2.9-8.7-10.7-12.3-18.6-15.4c-6.1-2.4-12.3-4.8-18.4-7.1L120,42.9l-17.4-17.4
		c-6.1,2.4-12.3,4.8-18.4,7.1c-7.9,3.1-15.7,6.7-18.6,15.4c-0.5,1.6-2.8,13.9-3.8,19.6c-0.2,1.3,0.6,2.6,2,2.9c0.1,0,0.3,0,0.4,0
		h111.6c1.4,0,2.5-1.1,2.5-2.5c0-0.1,0-0.3,0-0.4C177.2,61.8,175,49.5,174.4,48z"/>
	<path class="st1" d="M83.4,8.2c5.4,1.6,10.9,2.9,16.5,3.8l0,0l0.1,0c2.1,0.3,4.3,0.6,6.4,0.9c0.2,0,21.2,1.4,30.3-0.4l0,0
		c6.7-0.9,13.4-2.4,19.9-4.3c2.9-0.9,4.6-3.9,3.8-6.9c0-0.1,0-0.1-0.1-0.2L148.5-34c-2.1-6.6-6.5-12.2-12.5-15.8
		c-1.6-0.7-3.4-0.9-5.1-0.5c-1.5-1.3-3.2-2.4-5-3.2c-1.9-0.7-4-1-6-1c-12.9,0-24.4,8.3-28.5,20.5L79.7,1.1c-1,2.9,0.6,6,3.5,7
		C83.3,8.2,83.3,8.2,83.4,8.2z"/>
</g>
<g>
	<path class="st2" d="M118.2,40.6v25.6c0,3.1,2.5,5.6,5.6,5.6c3.1,0,5.6-2.5,5.6-5.6V38.5c-3.2,0-6.2-0.3-8.7-0.7
		C120.2,39.1,119.3,40,118.2,40.6z"/>
	<path class="st2" d="M131.2,66.2c0,3.1,2.5,5.6,5.6,5.6c3.1,0,5.6-2.5,5.6-5.6V37.5c-3.1,0.6-6.9,1-11.2,1.1V66.2z"/>
	<path class="st2" d="M127.6-31.6c6.5,1.5,12.9-2.5,14.4-9c1.5-6.5-2.5-12.9-9-14.4c-6.5-1.5-12.9,2.5-14.4,9
		C117.1-39.6,121.1-33.2,127.6-31.6z"/>
	<path class="st2" d="M155.6,16.3c0.3,2,2.1,3.4,4.1,3.1c2-0.3,3.4-2.1,3.1-4.1c-2.6-19.5-7.9-30.2-13-36.2
		c-4.7-5.5-9.3-6.7-10.5-6.9c-1-0.3-4.9-1.2-9-1.2c-4.2,0-8,0.9-9,1.2c-1.2,0.2-5.7,1.4-10.5,6.9c-1.1,1.3-2.3,2.9-3.4,4.7
		c2.1,2.3,3.4,5.3,3.4,8.6c0,0.2,0,0.4,0,0.7c1.6-3.8,3.3-6.5,4.9-8.5l-4.3,21.4c1.3,0.8,2.8,2,4.2,3.9c3.7,5.1,5.4,12.8,5.5,23.5
		c0,0.9,0,1.8,0,2.7c0,0,0,0,0,0c2.8,0.4,5.9,0.6,9.4,0.6c14.1,0,22.3-4,23.9-4.9c0.2-0.1,0.3-0.2,0.3-0.2l-9.6-47.2
		c0,0.1,0.1,0.1,0.1,0.2C148.8-10.3,153.3-1.1,155.6,16.3z"/>
	<path class="st2" d="M86.5,66.6c0,2.8,2.2,5,5,5c2.8,0,5-2.2,5-5V44.3h3.5v22.3c0,2.8,2.2,5,5,5c2.8,0,5-2.2,5-5V36.1H86.5
		C86.5,36.1,86.5,66.6,86.5,66.6z"/>
	<path class="st2" d="M119.3,33.5c0-11.9-2.3-18.6-5.1-22.5c-2.7-3.7-5.9-4.6-6.7-4.7c-0.2,0-0.4-0.1-0.6-0.1h-3.2
		c-1,1.7-3,2.9-5.4,2.9c-2.4,0-4.5-1.2-5.4-2.9h-3.2c-0.2,0-0.4,0-0.6,0.1C88.2,6.4,85,7.3,82.3,11c-2.8,3.9-5.1,10.6-5.1,22.5
		c0,0.9,0,1.8,0,2.7c0.1,1.8,1.5,3.3,3.3,3.3c0,0,0.1,0,0.1,0c1.8-0.1,3.3-1.6,3.3-3.4c0-0.9,0-1.7,0-2.5c0-8.4,1.3-13.5,2.6-16.4
		v16.8H110V17.1c1.3,2.9,2.6,8,2.6,16.4c0,0.8,0,1.6,0,2.5c-0.1,1.8,1.4,3.4,3.3,3.4c0,0,0.1,0,0.1,0c1.8,0,3.3-1.4,3.3-3.3
		C119.3,35.3,119.3,34.4,119.3,33.5z"/>
	<path class="st2" d="M103.7,2c3.3-1.9,5.4-5.4,5.4-9.4c0-6-4.9-10.9-10.9-10.9S87.3-13.5,87.3-7.5c0,4,2.2,7.5,5.4,9.4
		c1.6,0.9,3.5,1.5,5.5,1.5C100.3,3.5,102.1,2.9,103.7,2z"/>
</g>
</svg>
