<?xml version="1.0" encoding="utf-8"?>
<!-- Generator: Adobe Illustrator 19.0.0, SVG Export Plug-In . SVG Version: 6.00 Build 0)  -->
<svg version="1.1" id="Master_Layer_8" xmlns="http://www.w3.org/2000/svg" xmlns:xlink="http://www.w3.org/1999/xlink" x="0px"
	 y="0px" viewBox="0 0 16 16" style="enable-background:new 0 0 16 16;" xml:space="preserve">
<style type="text/css">
	.st0{fill:none;stroke:#231F20;stroke-width:0.75;stroke-linecap:round;stroke-linejoin:round;stroke-miterlimit:10;}
	.st1{fill:#231F20;}
</style>
<g id="XMLID_13_">
	<path id="XMLID_22_" class="st0" d="M11.2,6.4c0,2.2-1.4,4-3.2,4c-1.8,0-3.2-1.8-3.2-4"/>
	<path id="XMLID_21_" class="st0" d="M11.2,6.4c0-2-3.2-1.5-3.2-2.7c0,1.2-3.2,0.7-3.2,2.7"/>
	<path id="XMLID_20_" class="st0" d="M5.3,2.5C4.5,3.1,3.9,4.3,3.9,5.9c0,3.5,2,3.6,2,3.6"/>
	<path id="XMLID_19_" class="st0" d="M10.1,9.5c0,0,2-0.1,2-3.6c0-1.7-0.6-2.8-1.4-3.4"/>
	<path id="XMLID_18_" class="st0" d="M9.4,10.1v0.5c0,0,0.1,1.4-1.4,1.4s-1.4-1.4-1.4-1.4v-0.5"/>
	<path id="XMLID_17_" class="st0" d="M6.6,10.5c-1.1,0-2.9,0.6-3.7,1.7c-0.8,1-0.7,3.1-0.7,3.1h11.6c0,0,0.1-2.1-0.7-3.1
		c-0.8-1.1-2.6-1.7-3.7-1.7"/>
	<path id="XMLID_16_" class="st0" d="M8,3.1c-1.3,0-2.2,0.5-2.2,0.5l-1-2.2c0,0,1.3-0.7,3.2-0.7c1.9,0,3.2,0.7,3.2,0.7l-1,2.2
		C10.2,3.6,9.3,3.1,8,3.1z"/>
	<polygon id="XMLID_15_" class="st1" points="8.7,1.6 8.2,1.6 8.2,1.1 7.8,1.1 7.8,1.6 7.3,1.6 7.3,2.1 7.8,2.1 7.8,2.5 8.2,2.5 
		8.2,2.1 8.7,2.1 	"/>
</g>
</svg>
