<?xml version="1.0" encoding="utf-8"?>
<!-- Generator: Adobe Illustrator 19.0.0, SVG Export Plug-In . SVG Version: 6.00 Build 0)  -->
<svg version="1.1" id="Capa_1" xmlns="http://www.w3.org/2000/svg" xmlns:xlink="http://www.w3.org/1999/xlink" x="0px" y="0px"
	 viewBox="0 0 100 100" style="enable-background:new 0 0 100 100;" xml:space="preserve">
<style type="text/css">
	.st0{fill:#FBB680;}
	.st1{fill:#190000;}
	.st2{fill:#DBA071;}
	.st3{fill:#65BEBD;}
	.st4{fill:#23B4BD;}
	.st5{fill:#00B9C5;}
	.st6{fill:#FFFFFF;}
	.st7{fill:#3D040D;}
	.st8{fill:#4F141C;}
	.st9{fill:#D5D7D8;}
</style>
<g>
	<path class="st0" d="M69.6,39.9c-0.1-15.5-4.4-25.4-19.2-25.4c-14.4,0-19.6,9.3-19.6,25.3c0,0-0.6,13.4,10.9,22
		c0,0,4.4,3.3,8.7,3.3c0,0,3.6,0.6,8.3-3.4C58.8,61.6,69.7,53.4,69.6,39.9z"/>
	<polygon class="st1" points="32,50.1 33.6,71.7 66,71.7 68.9,50.1 	"/>
	<path class="st0" d="M75,72.8l-18.6-5.4h-6h-0.3h-6l-18.6,5.4c0,0-15.8,4.2-15.4,24.3h39.9h0.3h39.9C90.7,77,75,72.8,75,72.8z"/>
	<g>
		<rect x="42.3" y="58.2" class="st0" width="15.8" height="12.6"/>
		<path class="st2" d="M54.8,67.7c1.1-0.1,2.2-0.4,3.3-0.7v-8.8H42.3V64C45.4,66.8,50.8,68.3,54.8,67.7z"/>
	</g>
	<path class="st0" d="M69.6,39.9c-0.1-15.5-4.4-25.4-19.2-25.4c-14.4,0-19.6,9.3-19.6,25.3c0,0-0.6,13.4,10.9,22
		c0,0,4.4,3.3,8.7,3.3c0,0,3.6,0.6,8.3-3.4C58.8,61.6,69.7,53.4,69.6,39.9z"/>
	<path class="st3" d="M75,72.8l-8.1-2.4l-15.8,19l0,0L35,70l-9.6,2.8c0,0-17,2.5-15.4,27.2h39.9h0.3h39.9C92,77.3,75,72.8,75,72.8z"
		/>
	<polygon class="st4" points="35,70 51.1,89.5 45.6,94.4 25.5,72.8 	"/>
	<polygon class="st4" points="67.2,70.1 51.1,89.5 56.7,94.4 76.8,72.9 	"/>
	<circle class="st5" cx="70.3" cy="93.3" r="6.7"/>
	<g>
		<rect x="68.9" y="88.1" class="st6" width="2.8" height="10.4"/>
		<rect x="65.1" y="91.9" class="st6" width="10.4" height="2.8"/>
	</g>
	<g>
		
			<ellipse transform="matrix(0.9977 6.837899e-002 -6.837899e-002 0.9977 3.1715 -4.651)" class="st0" cx="69.5" cy="44" rx="2.7" ry="4.8"/>
		
			<ellipse transform="matrix(-0.9977 6.838761e-002 -6.838761e-002 -0.9977 64.653 85.7909)" class="st0" cx="30.9" cy="44" rx="2.7" ry="4.8"/>
		<path class="st7" d="M40.8,22.2c0,0,9.7,16.4,29.1,17c0,0,3.4-23.5-15.5-26.9C54.4,12.4,35.1,10.2,40.8,22.2z"/>
		<path class="st7" d="M41,14.9c0,0,0.8,2.2-0.8,6.1c-4.4,11.1-9.2,35-0.6,54.2c0,0-14.2,2.5-14.2-12.2C25.5,63,19.7,19.2,41,14.9z"
			/>
		<path class="st7" d="M66.2,38.9c0,0,2.7,29.6-8.1,36.4c0,0,16.2-0.5,16.7-14.1c0,0,3.5-38.9-12.6-45.5L66.2,38.9z"/>
		<path class="st8" d="M42.3,15.7c0,0-1.6,8,12.6,17.1c0,0,5.7,3.9,13.1,3.8c0,0-22.8-10.9-22.8-22.5C45.2,14,43.4,14.5,42.3,15.7z"
			/>
		<path class="st8" d="M46.8,13.6c0,0,3.7,12,22.8,22.5c0,0-18.8-14.5-20-22.8C49.6,13.2,47.6,13.2,46.8,13.6z"/>
		<path class="st8" d="M52.4,13.2c0,0,6.1,14.5,18.2,20.9c0,0-11.5-10.9-14.6-20.5C56,13.7,54,12.8,52.4,13.2z"/>
		<path class="st8" d="M68,38.7c0,0,3.2,27.5-4.4,33.9c0,0,11.3-5,6.5-34.3L68,38.7z"/>
		<path class="st8" d="M62.5,17.1c0,0,7,4.9,10.2,18.9c0,0,5.6,30.3-4.5,34.8c0,0,7.8-4.3,3-34.3c0,0-2.8-11.2-10.4-18.6
			c0,0-3.3-2.9-4.4-4.2C56.5,13.8,60.5,15.3,62.5,17.1z"/>
		<path class="st8" d="M39,16.3c0,0-15.6,5.4-12.9,43.9c0,0-0.4,12.3,11.6,14.5c0,0-11.2-2.2-10.2-24.7C27.5,50.1,26.3,29.9,39,16.3
			z"/>
		<path class="st8" d="M39,18.1c0,0-12,15.2-9.5,42.4c0,0,0.7,9.7,8.4,13.1c0,0-8.4-6.3-6.7-24.8C31.2,48.8,31.2,38.8,39,18.1z"/>
	</g>
	<path class="st9" d="M34.7,22c0,0,13.8-5.5,30.1,0.6L70.6,5c0,0-21.1-7.8-40.7,0L34.7,22z"/>
	<path class="st6" d="M36.1,21.3c0,0,12.5-5,27.4,0.5l5.3-16c0,0-19.2-7.1-37,0L36.1,21.3z"/>
	<g>
		<circle class="st5" cx="50.2" cy="11" r="6.7"/>
		<g>
			<rect x="48.8" y="5.8" class="st6" width="2.8" height="10.4"/>
			<rect x="45" y="9.6" class="st6" width="10.4" height="2.8"/>
		</g>
	</g>
</g>
</svg>
