<?xml version="1.0" encoding="utf-8"?>
<!-- Generator: Adobe Illustrator 19.0.0, SVG Export Plug-In . SVG Version: 6.00 Build 0)  -->
<svg version="1.1" id="Layer_1" xmlns="http://www.w3.org/2000/svg" xmlns:xlink="http://www.w3.org/1999/xlink" x="0px" y="0px"
	 viewBox="0 0 18 23" style="enable-background:new 0 0 18 23;" xml:space="preserve" width="18" height="23">
<style type="text/css">
	.st0{fill:none;stroke:#367C10;stroke-width:3;stroke-miterlimit:10;}
	.st1{fill:#367C10;}
</style>
<image style="display:none;overflow:visible;" width="16" height="21" xlink:href="AE991D79.jpg" >
</image>
<circle class="st0" cx="9" cy="9" r="7.4"/>
<path class="st1" d="M9.3,20.6L9.3,20.6c-1.4,0-2.6-1.2-2.6-2.6v-1.6c0-1.4,0.4,0.4,1.9,0.4l2.3-0.1c1.4,0,1.1-1.8,1.1-0.3v1.6
	C11.9,19.4,10.7,20.6,9.3,20.6z"/>
<path class="st1" d="M9.4,23L9.4,23C8.6,23,8,22.4,8,21.6v-1c0-0.8,0.6-1.4,1.4-1.4h0c0.8,0,1.4,0.6,1.4,1.4v1
	C10.8,22.4,10.2,23,9.4,23z"/>
<circle class="st1" cx="9.4" cy="9.6" r="1.5"/>
<polygon class="st1" points="5.9,5.9 8.1,10.3 10.3,8.4 "/>
</svg>
