<?xml version="1.0" encoding="utf-8"?>
<!-- Generator: Adobe Illustrator 19.0.0, SVG Export Plug-In . SVG Version: 6.00 Build 0)  -->
<svg version="1.1" xmlns="http://www.w3.org/2000/svg" xmlns:xlink="http://www.w3.org/1999/xlink" x="0px" y="0px"
	 viewBox="0 0 16 16" style="enable-background:new 0 0 16 16;" xml:space="preserve">
<g id="Layer_1">
	<g>
		<path d="M4.4,3.7c0-0.2,0-0.3,0-0.5c0-0.9,0.3-1.6,0.8-2.1c0.5-0.5,1.2-0.9,2-1C7.5,0,7.8,0,8,0l0,0l0,0c0,0,0,0,0,0
			c0.3,0,0.5,0,0.7,0c0.8,0.1,1.5,0.5,2,1c0.5,0.5,0.8,1.3,0.8,2.1c0,0.2,0,0.3,0,0.5C12.5,5,11.4,6.5,11,6.8
			c-0.3,1-0.8,1.6-1.4,2.1C9.1,9.2,8.6,9.4,8,9.4c-0.5,0-1.1-0.2-1.6-0.5C5.8,8.5,5.3,7.8,5,6.8C4.7,6.5,3.5,5,4.4,3.7L4.4,3.7z
			 M5.3,3.2c0,0.2,0,0.3,0,0.5c0,0.1,0,0.3-0.1,0.4l0,0C4.6,5,5.6,6.1,5.7,6.3c0.1,0.1,0.1,0.1,0.1,0.2l0,0C6.1,7.3,6.5,7.8,7,8.1
			c0.3,0.2,0.7,0.3,1,0.3c0.4,0,0.7-0.1,1-0.3c0.5-0.3,0.9-0.9,1.1-1.6c0-0.1,0.1-0.2,0.1-0.2l0,0c0,0,1.2-1.2,0.5-2.2
			c-0.1-0.1-0.1-0.2-0.1-0.4l0,0c0-0.2,0-0.4,0-0.6c0-0.6-0.2-1.1-0.5-1.5C9.8,1.3,9.3,1.1,8.7,1c-0.2,0-0.4,0-0.6,0c0,0,0,0,0,0v0
			c-0.2,0-0.4,0-0.6,0C6.7,1.1,6.2,1.3,5.9,1.7C5.5,2,5.3,2.5,5.3,3.2z"/>
		<path d="M8,16c-2.2,0-5-0.3-7-1.1l0,0c-0.2-0.1-0.3-0.3-0.3-0.5c0-0.4,0.1-2.8,1.7-3.7l0,0l0,0l0,0c0,0,0,0,0,0l3.1-1.7l0,0
			C5.7,8.9,6,9,6.1,9.2c0.1,0.1,0.1,0.1,0.2,0.2l0,0c0,0,0,0,0,0C6.8,9.8,7.4,10,8,10c0.6,0,1.3-0.2,1.7-0.5C9.8,9.4,9.9,9.3,10,9.2
			l0,0C10.1,9,10.4,9,10.6,9.1l3,1.7l0,0l0,0l0,0c0,0,0,0,0,0c1.7,0.9,1.7,3.7,1.7,3.7l0,0c0,0.2-0.1,0.4-0.3,0.4C12,16,8.1,16,8,16
			L8,16z M1.6,14.2c2.6,0.9,5.9,0.9,6.3,0.9c0,0,0,0,0,0v0c0,0,3.6,0,6.4-0.9c0-0.6-0.2-2.1-1.2-2.6c0,0,0,0,0,0l0,0l-2.8-1.5
			c0,0-0.1,0.1-0.1,0.1c-0.6,0.5-1.5,0.8-2.3,0.8c-0.8,0-1.6-0.3-2.3-0.7l0,0v0c0,0-0.1-0.1-0.1-0.1l-2.8,1.5c0,0,0,0,0,0l0,0
			C1.9,12.1,1.7,13.5,1.6,14.2z"/>
	</g>
</g>
<g id="Master_Layer_8">
</g>
</svg>
