<?xml version="1.0" encoding="utf-8"?>
<!-- Generator: Adobe Illustrator 19.0.0, SVG Export Plug-In . SVG Version: 6.00 Build 0)  -->
<svg version="1.1" xmlns="http://www.w3.org/2000/svg" xmlns:xlink="http://www.w3.org/1999/xlink" x="0px" y="0px"
	 viewBox="0 0 368 368" style="enable-background:new 0 0 368 368;" xml:space="preserve">
<style type="text/css">
	.st0{fill-rule:evenodd;clip-rule:evenodd;fill:#6B809B;}
	.st1{fill-rule:evenodd;clip-rule:evenodd;fill:#FFFFFF;}
	.st2{fill-rule:evenodd;clip-rule:evenodd;fill:#00BCD4;}
	.st3{fill-rule:evenodd;clip-rule:evenodd;fill:#D3AA96;}
	.st4{fill-rule:evenodd;clip-rule:evenodd;fill:#02ABC1;}
	.st5{fill-rule:evenodd;clip-rule:evenodd;fill:#E8E8E8;}
	.st6{fill-rule:evenodd;clip-rule:evenodd;fill:#FFCEB4;}
	.st7{fill-rule:evenodd;clip-rule:evenodd;}
	.st8{fill-rule:evenodd;clip-rule:evenodd;fill:#4F6074;}
</style>
<g id="Layer_1">
	<g>
		<path class="st0" d="M165.7,295.3l-38.1-63.5C78.5,248.5,14.4,253,9.8,319.1c-0.6,8.4-1.9,29.3-2.5,49.8h177.2h177.2
			c-0.6-20.5-2-41.4-2.5-49.8c-4.6-66.1-68.7-70.7-117.8-87.3l-38.1,63.5H165.7z"/>
		<path d="M255.6,63.6l-1.3,28.7c11.3,21.5-0.3,33.2-6.2,37.5c-2.8,24.7-17,41.1-34.8,49.3c-8.7,4-18.3,6-27.9,6
			c-9.6,0-19.1-2-27.9-6c-17.9-8.2-32-24.7-34.8-49.3c-5.9-4.3-17.5-16-6.2-37.5l-1.3-28.7l0.2-1.9c5.2-17.8,17.3-30.7,32.3-38.6
			c12.1-6.4,26.2-9.4,40.1-9.2c14,0.2,27.8,3.7,39.4,10.5c13.6,8,24.1,20.5,28.2,37.5L255.6,63.6z"/>
		<path class="st1" d="M184,255.1c31.3,0,56.7,21.1,56.7,39.4c0,18.4-12,67.7-29.6,74.3h-54.3c-17.6-6.7-29.6-56-29.6-74.3
			S152.7,255.1,184,255.1z"/>
		<polygon class="st2" points="184.8,255.6 163.4,278.1 169.8,286.2 153.3,368.9 171.4,368.9 198.3,368.9 212.6,368.3 201.8,286.3 
			206.2,278.1 		"/>
		<polygon class="st3" points="232.3,162 234.7,210.5 183.2,262 134.9,209.3 137.2,161.9 		"/>
		<polygon class="st4" points="181.4,255.5 163.4,278.1 169.8,286.2 169.8,286.3 201.8,286.3 206.2,278.1 188.7,255.5 		"/>
		<polygon class="st5" points="113.4,231.8 135.1,206.4 184.8,255.6 146.8,298.1 		"/>
		<polygon class="st5" points="256.2,231.8 234.5,206.4 184.8,255.6 222.8,298.1 		"/>
		<path class="st3" d="M255.6,100.4c0,0,24.4,35.7-7.3,50.4L255.6,100.4z"/>
		<path class="st3" d="M114,100.4c0,0-24.4,35.7,7.3,50.4L114,100.4z"/>
		<path class="st6" d="M191.1,32.5c38.9,0,65.4,30.6,65.4,82.7c0,33.9-24.9,103.6-65,103.6c-4.5,0-8.9,0-13.4,0
			c-40.1,0-65-69.6-65-103.6c0-52.1,26.5-82.7,65.4-82.7C182.7,32.5,186.9,32.5,191.1,32.5z"/>
		<path class="st7" d="M113.1,115.1c0,0-9.3-63.6,1.4-69.2c-2-11.5,9.3-21.8,17.4-24.8c0,0,14.1-16.6,47.3-20
			c0,0,50.2-9.6,79.7,36.6c4.8,7.5,4,5.8-1.4,12.7c3.8,19.9,3.4,46.6-1,66.1c0,0-7.8-49.5-16.5-56c0,0-51.2,27.6-107.8-4.8
			c0,0-7.7,5.7-11.2,19.6c-0.8,3.1-1.3,6.2-1.8,9.8C117.6,95.7,115.6,104.6,113.1,115.1z"/>
		<g>
			<polygon class="st8" points="134.8,368.9 97.6,298.2 109.2,278.2 88.3,271.7 92.3,241 115.1,231.8 115.1,231.8 116.2,233.9 
				184.4,368.9 			"/>
			<polygon class="st8" points="234,368.9 271.2,298.2 259.7,278.2 280.5,271.7 276.6,241 253.7,231.8 253.7,231.8 252.7,233.9 
				184.4,368.9 			"/>
		</g>
		<g>
			<polygon class="st8" points="75.6,324.7 83.6,368.9 70.5,368.9 			"/>
			<polygon class="st8" points="293.3,324.7 285.3,368.9 298.3,368.9 			"/>
		</g>
	</g>
</g>
<g id="Master_Layer_5">
</g>
</svg>
