<?xml version="1.0" encoding="utf-8"?>
<!-- Generator: Adobe Illustrator 19.0.0, SVG Export Plug-In . SVG Version: 6.00 Build 0)  -->
<svg version="1.1" id="Layer_1" xmlns="http://www.w3.org/2000/svg" xmlns:xlink="http://www.w3.org/1999/xlink" x="0px" y="0px"
	 viewBox="0 0 16 16" style="enable-background:new 0 0 16 16;" xml:space="preserve">
<style type="text/css">
	.st0{fill:#262626;}
</style>
<path id="_xD83D__xDD39_-Icon-Color" class="st0" d="M4.4,8.7c1.2,0,2.1-1,2.1-2.1s-1-2.1-2.1-2.1s-2.1,1-2.1,2.1S3.3,8.7,4.4,8.7z
	 M15.8,9.4H1.6V3.7C1.6,3.3,1.3,3,0.9,3S0.2,3.3,0.2,3.7V13c0,0.4,0.3,0.7,0.7,0.7s0.7-0.3,0.7-0.7v-1.4h12.8V13
	c0,0.4,0.3,0.7,0.7,0.7c0.4,0,0.7-0.3,0.7-0.7V9.7 M15.8,8.8V7.3c0-1.6-1.3-2.8-2.8-2.8H8.7c-0.8,0-1.4,0.6-1.4,1.4v2.9L15.8,8.8z"
	/>
</svg>
