<?xml version="1.0" encoding="UTF-8"?>
<svg width="16px" height="19px" viewBox="0 0 16 19" version="1.1" xmlns="http://www.w3.org/2000/svg" xmlns:xlink="http://www.w3.org/1999/xlink">
    <title>user</title>
    <g id="Page-1" stroke="none" stroke-width="1" fill="none" fill-rule="evenodd">
        <g id="user" transform="translate(0.000000, -0.000000)" fill="#eb4132" fill-rule="nonzero">
            <path d="M8,0 C5.35328,0 3.2,2.15328 3.2,4.8 C3.2,7.44672 5.35328,9.6 8,9.6 C10.64672,9.6 12.8,7.44672 12.8,4.8 C12.8,2.15328 10.64672,0 8,0 Z" id="Path"></path>
            <path d="M13.9721244,12.7358222 C12.6579911,11.4014933 10.9158756,10.6666667 9.06666667,10.6666667 L6.93333333,10.6666667 C5.08416,10.6666667 3.34200889,11.4014933 2.02787556,12.7358222 C0.720177778,14.0636089 0,15.8162844 0,17.6711111 C0,17.9656533 0.238791111,18.2044444 0.533333333,18.2044444 L15.4666667,18.2044444 C15.7612089,18.2044444 16,17.9656533 16,17.6711111 C16,15.8162844 15.2798222,14.0636089 13.9721244,12.7358222 Z" id="Path"></path>
        </g>
    </g>
</svg>